<svg width="17" height="17" viewBox="0 0 17 17" fill="none" xmlns="http://www.w3.org/2000/svg">
<path d="M9.3375 2C7.0375 2 3.575 2.65517 1.95 4.13793C1.5375 4.51724 1 5.25287 1 6.34483C1 8.27586 2.6875 11.2299 4.5375 12.954C5.5 13.8391 7.025 15 9.0875 15C11.1 15 12.6375 13.7356 13.075 13.3333C14.775 11.7586 16 9.37931 16 7.14943C16 5.74713 15.5625 4.51724 14.4625 3.49425C13.4375 2.54023 11.675 2 9.3375 2ZM6.4875 9.68966C5.7125 8.97701 5.5 8.09195 5.5 7.6092C5.5 7.25287 5.6 6.73563 6.075 6.29885C6.8125 5.62069 7.6125 5.43678 8.5 5.43678C9.6125 5.43678 10.3625 5.75862 10.8625 6.21839C11.25 6.57471 11.5875 7.13793 11.5875 7.93103C11.5875 8.72414 11.1375 9.48276 10.6375 9.94253C10.175 10.3678 9.4625 10.6782 8.725 10.6782C7.9875 10.6782 7.2625 10.4023 6.4875 9.68966Z" fill="#5A4FFB"/>
</svg>
