<svg width="15" height="21" viewBox="0 0 15 21" fill="none" xmlns="http://www.w3.org/2000/svg">
<path d="M8.47826 0H1.30435C0.9375 0 0.628397 0.126465 0.377038 0.379395C0.125679 0.632324 0 0.943359 0 1.3125V19.6875C0 20.0566 0.125679 20.3677 0.377038 20.6206C0.628397 20.8735 0.9375 21 1.30435 21H13.6957C14.0625 21 14.3716 20.8735 14.623 20.6206C14.8743 20.3677 15 20.0566 15 19.6875V6.5625L8.47826 0ZM13.6957 7.11621V7.21875H7.82609V1.3125H7.94837L13.6957 7.11621ZM1.30435 19.6875V1.3125H6.52174V8.53125H13.6957V19.6875H1.30435Z" fill="#19243E"/>
</svg>
