<svg width="32" height="29" viewBox="0 0 32 29" fill="none" xmlns="http://www.w3.org/2000/svg">
<path d="M17.7867 0C12.88 0 5.49333 1.46154 2.02666 4.76923C1.14667 5.61539 0 7.25641 0 9.69231C0 14 3.6 20.5897 7.54667 24.4359C9.6 26.4103 12.8533 29 17.2533 29C21.5467 29 24.8267 26.1795 25.76 25.2821C29.3867 21.7692 32 16.4615 32 11.4872C32 8.35897 31.0667 5.61539 28.72 3.33333C26.5333 1.20513 22.7733 0 17.7867 0ZM11.7067 17.1538C10.0533 15.5641 9.6 13.5897 9.6 12.5128C9.6 11.7179 9.81333 10.5641 10.8267 9.58974C12.4 8.07692 14.1067 7.66667 16 7.66667C18.3733 7.66667 19.9733 8.38462 21.04 9.41026C21.8667 10.2051 22.5867 11.4615 22.5867 13.2308C22.5867 15 21.6267 16.6923 20.56 17.7179C19.5733 18.6667 18.0533 19.359 16.48 19.359C14.9067 19.359 13.36 18.7436 11.7067 17.1538Z" fill="#19243E"/>
</svg>
