<svg width="20" height="20" viewBox="0 0 20 20" fill="none" xmlns="http://www.w3.org/2000/svg">
<path fill-rule="evenodd" clip-rule="evenodd" d="M9.974 0C4.465 0 0 4.465 0 9.974C0 14.38 2.857 18.119 6.821 19.439C7.32 19.529 7.5 19.222 7.5 18.958C7.5 18.721 7.492 18.093 7.489 17.262C4.714 17.864 4.128 15.924 4.128 15.924C3.676 14.772 3.021 14.465 3.021 14.465C2.116 13.846 3.09 13.86 3.09 13.86C4.092 13.93 4.617 14.888 4.617 14.888C5.507 16.412 6.953 15.972 7.519 15.717C7.61 15.072 7.87 14.632 8.154 14.383C5.94 14.132 3.612 13.276 3.612 9.453C3.612 8.366 4.001 7.474 4.636 6.778C4.535 6.525 4.19 5.51 4.735 4.138C4.735 4.138 5.572 3.869 7.477 5.159C8.29059 4.93767 9.12984 4.8247 9.973 4.823C10.8162 4.82437 11.6555 4.93735 12.469 5.159C14.375 3.868 15.211 4.138 15.211 4.138C15.756 5.51 15.414 6.525 15.31 6.778C15.95 7.474 16.334 8.365 16.334 9.453C16.334 13.286 14.004 14.128 11.782 14.375C12.137 14.683 12.457 15.291 12.457 16.221C12.457 17.555 12.445 18.631 12.445 18.958C12.445 19.225 12.623 19.535 13.132 19.437C17.094 18.115 19.948 14.379 19.948 9.974C19.948 4.465 15.483 0 9.974 0Z" fill="white"/>
</svg>
