<svg width="13" height="13" viewBox="0 0 13 13" fill="none" xmlns="http://www.w3.org/2000/svg">
<path fill-rule="evenodd" clip-rule="evenodd" d="M6.5 0C2.90982 0 0 2.98347 0 6.66453C0 9.60858 1.86189 12.1069 4.44521 12.989C4.7704 13.0491 4.88771 12.844 4.88771 12.6676C4.88771 12.5092 4.88249 12.0896 4.88054 11.5343C3.07209 11.9366 2.69019 10.6403 2.69019 10.6403C2.39563 9.87051 1.96877 9.66538 1.96877 9.66538C1.37899 9.25177 2.01374 9.26112 2.01374 9.26112C2.66673 9.30789 3.00887 9.94802 3.00887 9.94802C3.58888 10.9663 4.53123 10.6723 4.90009 10.502C4.95939 10.071 5.12884 9.77696 5.31392 9.61059C3.87107 9.44287 2.35392 8.8709 2.35392 6.31641C2.35392 5.59008 2.60743 4.99406 3.02126 4.529C2.95543 4.35994 2.7306 3.68173 3.08577 2.76497C3.08577 2.76497 3.63124 2.58523 4.87272 3.4472C5.40293 3.29931 5.94987 3.22382 6.49935 3.22268C7.04884 3.2236 7.59581 3.29909 8.12598 3.4472C9.36811 2.58456 9.91292 2.76497 9.91292 2.76497C10.2681 3.68173 10.0452 4.35994 9.97744 4.529C10.3945 4.99406 10.6448 5.58941 10.6448 6.31641C10.6448 8.87758 9.12633 9.4402 7.67826 9.60524C7.90962 9.81104 8.11816 10.2173 8.11816 10.8387C8.11816 11.7301 8.11034 12.4491 8.11034 12.6676C8.11034 12.846 8.22634 13.0531 8.55805 12.9876C11.1401 12.1043 13 9.60791 13 6.66453C13 2.98347 10.0902 0 6.5 0Z" fill="#19243E"/>
</svg>
