<svg width="19" height="19" viewBox="0 0 19 19" fill="none" xmlns="http://www.w3.org/2000/svg">
<path d="M9.5 1.1875C4.90957 1.1875 1.1875 4.90957 1.1875 9.5C1.1875 14.0904 4.90957 17.8125 9.5 17.8125C14.0904 17.8125 17.8125 14.0904 17.8125 9.5C17.8125 4.90957 14.0904 1.1875 9.5 1.1875ZM9.5 16.4023C5.68887 16.4023 2.59766 13.3111 2.59766 9.5C2.59766 5.68887 5.68887 2.59766 9.5 2.59766C13.3111 2.59766 16.4023 5.68887 16.4023 9.5C16.4023 13.3111 13.3111 16.4023 9.5 16.4023Z" fill="white"/>
<path d="M8.60938 6.23438C8.60938 6.47058 8.70321 6.69712 8.87023 6.86414C9.03726 7.03117 9.26379 7.125 9.5 7.125C9.73621 7.125 9.96274 7.03117 10.1298 6.86414C10.2968 6.69712 10.3906 6.47058 10.3906 6.23438C10.3906 5.99817 10.2968 5.77163 10.1298 5.60461C9.96274 5.43758 9.73621 5.34375 9.5 5.34375C9.26379 5.34375 9.03726 5.43758 8.87023 5.60461C8.70321 5.77163 8.60938 5.99817 8.60938 6.23438ZM9.94531 8.3125H9.05469C8.97305 8.3125 8.90625 8.3793 8.90625 8.46094V13.5078C8.90625 13.5895 8.97305 13.6562 9.05469 13.6562H9.94531C10.027 13.6562 10.0938 13.5895 10.0938 13.5078V8.46094C10.0938 8.3793 10.027 8.3125 9.94531 8.3125Z" fill="white"/>
</svg>
