<svg width="24" height="24" viewBox="0 0 24 24" fill="none" xmlns="http://www.w3.org/2000/svg">
<path d="M12.001 22.0071C17.514 22.0061 22 17.5201 22.001 12.0061C22.001 6.49208 17.515 2.00608 12 2.00608C6.48597 2.00708 1.99998 6.49308 1.99998 12.0061C1.99998 17.5201 6.48598 22.0061 12.001 22.0071ZM12 4.00608C16.412 4.00608 20.001 7.59508 20.001 12.0061C20 16.4171 16.411 20.0061 12.001 20.0071C7.58898 20.0061 3.99998 16.4171 3.99998 12.0061C3.99998 7.59608 7.58897 4.00708 12 4.00608Z" fill="white"/>
<path d="M11.9882 16.011L15.9932 12.006L11.9882 8.00199L11.9882 11.006L7.99416 11.006L7.99416 13.006L11.9882 13.006L11.9882 16.011Z" fill="white"/>
</svg>
