<svg width="17" height="17" viewBox="0 0 17 17" fill="none" xmlns="http://www.w3.org/2000/svg">
<g clip-path="url(#clip0)">
<path d="M3.28685 13.7561C3.32338 13.9453 3.21049 14.1246 3.02123 14.1645C2.84193 14.201 2.65932 14.0881 2.62279 13.8988C2.58627 13.7195 2.69916 13.5303 2.87846 13.4904C3.05775 13.4506 3.24701 13.5668 3.28685 13.7561ZM8.03822 16.1268C7.82904 16.2795 7.7726 16.5717 7.91537 16.7908C8.0681 17.01 8.36029 17.0664 8.57943 16.9137C8.78861 16.7609 8.84506 16.4687 8.69232 16.2496C8.55287 16.0338 8.25736 15.974 8.03822 16.1268ZM5.18275 0.77695C5.39193 0.730465 5.52475 0.521286 5.47826 0.312106C5.44174 0.0929652 5.23256 -0.0398473 5.02338 0.0099574C4.8142 0.0564418 4.68139 0.265622 4.72123 0.474801C4.76771 0.693942 4.97357 0.826754 5.18275 0.77695ZM1.14193 7.51386C0.809902 7.28476 0.355019 7.37109 0.125917 7.71308C-0.103184 8.04511 -0.0168564 8.50996 0.315175 8.73906C0.647206 8.9748 1.10209 8.89179 1.33119 8.5498C1.56029 8.20449 1.47396 7.74961 1.14193 7.51386ZM10.1732 1.83945C10.5251 1.63027 10.6281 1.17539 10.4288 0.833395C10.2197 0.481442 9.77474 0.368551 9.43275 0.577731C9.09076 0.786911 8.97787 1.24179 9.18705 1.59375C9.38627 1.93574 9.83119 2.04863 10.1732 1.83945ZM3.82807 3.76523C4.08373 3.58593 4.14017 3.23398 3.97084 2.97832C3.8015 2.72265 3.44955 2.66621 3.20385 2.83554C2.94818 3.01484 2.89174 3.36679 3.06107 3.62246C3.23041 3.88144 3.57904 3.93789 3.82807 3.76523ZM16.1896 8.94492C15.9439 9.00136 15.7812 9.24707 15.8376 9.50605C15.8841 9.75175 16.1331 9.91445 16.3788 9.858C16.6245 9.81152 16.7872 9.5625 16.7308 9.30683C16.681 9.06113 16.4353 8.89843 16.1896 8.94492ZM17.5078 7.05898C17.4712 6.86972 17.2886 6.75683 17.1093 6.79336C16.9201 6.82988 16.8072 7.02246 16.8437 7.21172C16.8802 7.39101 17.0628 7.51386 17.2521 7.47734C17.4314 7.42754 17.5542 7.24824 17.5078 7.05898ZM14.8415 4.61191C14.556 4.81113 14.4896 5.19961 14.6788 5.48515C14.8681 5.7707 15.2566 5.83711 15.5421 5.64785C15.8177 5.44863 15.8841 5.06015 15.6949 4.77461C15.5056 4.48574 15.1171 4.41269 14.8415 4.61191ZM14.6324 9.24043C15.5056 10.6715 15.1337 12.5607 13.7591 13.527C13.1814 13.9353 12.5273 14.1146 11.8699 14.0947C11.4714 15.6586 9.56557 16.2396 8.38021 15.1771C8.34369 15.207 8.29389 15.2336 8.25736 15.2734C6.95912 16.1732 5.19271 15.8512 4.29291 14.533C3.97084 14.0582 3.80814 13.517 3.79154 12.9758C1.62006 12.6139 0.803261 9.85469 2.42689 8.3373C1.48725 6.78008 2.44682 4.77129 4.19994 4.52226C5.03334 2.32422 7.7726 1.28164 9.63197 2.72265C11.8699 1.98222 14.1576 3.69883 13.9783 6.07949C15.3429 6.49785 15.7314 8.30078 14.6324 9.24043ZM12.3081 11.7074C12.2052 11.0234 10.9501 11.5547 10.8771 10.8076C10.7742 9.74511 12.3281 7.45078 12.2052 6.55761C12.0923 5.76074 11.5611 5.5914 11.0962 5.58144C10.6513 5.57148 10.5351 5.64785 10.3857 5.73418C10.2894 5.79062 10.1665 5.89687 9.99721 5.72422C9.78803 5.525 9.62865 5.33574 9.35307 5.2959C8.94467 5.22949 8.76537 5.3623 8.46986 5.61797C8.35697 5.71425 8.07143 6.04629 7.8058 5.92011C7.69291 5.86367 7.29447 5.66445 7.00892 5.5416C6.46771 5.30586 5.6808 5.69433 5.39525 6.20566C4.96693 6.96601 4.13353 9.96093 4.01068 10.3594C3.72514 11.2426 4.3726 11.973 5.23588 11.9232C5.60443 11.9033 5.8435 11.7705 6.07924 11.3455C6.21205 11.0998 7.46381 7.76953 7.5601 7.60683C7.6265 7.49394 7.8556 7.34121 8.04486 7.4375C8.23412 7.54043 8.27396 7.74961 8.24408 7.93886C8.20756 8.26093 7.31439 10.293 7.28451 10.5187C7.17162 11.2791 8.17768 11.4019 8.56615 10.6516C8.689 10.4158 10.0835 7.57695 10.2064 7.38769C10.3492 7.17851 10.4521 7.11211 10.5949 7.12207C10.6978 7.12207 10.8704 7.15195 10.8306 7.48398C10.7841 7.79609 9.66517 9.88457 9.539 10.3959C9.38627 11.0799 9.75814 11.7705 10.3658 12.076C10.7443 12.2652 12.441 12.5973 12.3081 11.7074ZM12.4974 14.7721C12.1554 15.0178 12.0691 15.5025 12.3081 15.8545C12.5439 16.2064 13.0187 16.2895 13.3706 16.0537C13.7226 15.808 13.8056 15.3232 13.5699 14.9713C13.3242 14.6193 12.8494 14.523 12.4974 14.7721Z" fill="#E52544"/>
</g>
<defs>
<clipPath id="clip0">
<rect width="17" height="17" fill="white"/>
</clipPath>
</defs>
</svg>
