<svg width="15" height="13" viewBox="0 0 15 13" fill="none" xmlns="http://www.w3.org/2000/svg">
<path d="M8.3375 0C6.0375 0 2.575 0.655173 0.95 2.13793C0.537499 2.51724 0 3.25287 0 4.34483C0 6.27586 1.6875 9.22989 3.5375 10.954C4.5 11.8391 6.025 13 8.0875 13C10.1 13 11.6375 11.7356 12.075 11.3333C13.775 9.75862 15 7.37931 15 5.14943C15 3.74713 14.5625 2.51724 13.4625 1.49425C12.4375 0.54023 10.675 0 8.3375 0ZM5.4875 7.68966C4.7125 6.97701 4.5 6.09195 4.5 5.6092C4.5 5.25287 4.6 4.73563 5.075 4.29885C5.8125 3.62069 6.6125 3.43678 7.5 3.43678C8.6125 3.43678 9.3625 3.75862 9.8625 4.21839C10.25 4.57471 10.5875 5.13793 10.5875 5.93103C10.5875 6.72414 10.1375 7.48276 9.6375 7.94253C9.175 8.36782 8.4625 8.67816 7.725 8.67816C6.9875 8.67816 6.2625 8.4023 5.4875 7.68966Z" fill="#5A4FFB"/>
</svg>
