<svg width="112" height="113" viewBox="0 0 112 113" fill="none" xmlns="http://www.w3.org/2000/svg">
<path opacity="0.05" fill-rule="evenodd" clip-rule="evenodd" d="M111.646 7.62939e-06L74.4434 4.37709e-06L74.4434 47.4049L101.464 47.4049L101.464 60.0829C101.464 79.1919 92.6407 88.7463 74.9949 88.7463L74.9949 113C90.3597 113 102.577 109.514 111.646 102.542L111.646 7.62939e-06ZM50.1805 2.25595e-06L0.000170096 -2.13095e-06L0.000165952 47.4049L27.0203 47.4049L27.0203 60.0829C27.0203 79.1919 18.1974 88.7463 0.551623 88.7463L0.55162 113C38.049 113 56.7976 92.2374 56.7976 50.7122C56.7976 36.013 54.5919 19.109 50.1805 2.25595e-06Z" fill="#19243E"/>
</svg>
