<svg width="32" height="32" viewBox="0 0 32 32" fill="none" xmlns="http://www.w3.org/2000/svg">
<path d="M9.042 19.166C9.042 19.6646 8.89412 20.1521 8.61707 20.5667C8.34001 20.9813 7.94623 21.3044 7.48551 21.4952C7.0248 21.686 6.51786 21.7358 6.02881 21.6385C5.53976 21.5411 5.09056 21.3009 4.73803 20.9483C4.3855 20.5956 4.14548 20.1463 4.04832 19.6572C3.95116 19.1681 4.00123 18.6612 4.19219 18.2006C4.38315 17.7399 4.70643 17.3463 5.12114 17.0694C5.53584 16.7925 6.02335 16.6448 6.522 16.645H9.042V19.166Z" fill="white"/>
<path d="M10.313 19.166C10.313 18.4974 10.5786 17.8562 11.0514 17.3834C11.5242 16.9106 12.1654 16.645 12.834 16.645C13.5026 16.645 14.1438 16.9106 14.6166 17.3834C15.0894 17.8562 15.355 18.4974 15.355 19.166V25.479C15.355 26.1476 15.0894 26.7888 14.6166 27.2616C14.1438 27.7344 13.5026 28 12.834 28C12.1654 28 11.5242 27.7344 11.0514 27.2616C10.5786 26.7888 10.313 26.1476 10.313 25.479V19.166Z" fill="white"/>
<path d="M12.834 9.042C12.3353 9.042 11.8479 8.89412 11.4333 8.61707C11.0187 8.34001 10.6956 7.94623 10.5048 7.48551C10.314 7.0248 10.2641 6.51786 10.3615 6.02881C10.4589 5.53976 10.6991 5.09056 11.0517 4.73803C11.4044 4.3855 11.8537 4.14548 12.3428 4.04832C12.8319 3.95116 13.3388 4.00123 13.7994 4.19219C14.2601 4.38315 14.6537 4.70643 14.9306 5.12114C15.2075 5.53584 15.3552 6.02335 15.355 6.522V9.042H12.834Z" fill="white"/>
<path d="M12.834 10.313C13.5026 10.313 14.1439 10.5786 14.6166 11.0514C15.0894 11.5242 15.355 12.1654 15.355 12.834C15.355 13.5026 15.0894 14.1438 14.6166 14.6166C14.1439 15.0894 13.5026 15.355 12.834 15.355H6.52002C5.85141 15.355 5.21019 15.0894 4.73741 14.6166C4.26463 14.1438 3.99902 13.5026 3.99902 12.834C3.99902 12.1654 4.26463 11.5242 4.73741 11.0514C5.21019 10.5786 5.85141 10.313 6.52002 10.313H12.834Z" fill="white"/>
<path d="M22.958 12.834C22.958 12.3353 23.1059 11.8479 23.3829 11.4333C23.66 11.0187 24.0538 10.6956 24.5145 10.5048C24.9752 10.314 25.4821 10.2641 25.9712 10.3615C26.4603 10.4589 26.9094 10.6991 27.262 11.0517C27.6145 11.4044 27.8545 11.8537 27.9517 12.3428C28.0488 12.8319 27.9988 13.3388 27.8078 13.7994C27.6169 14.2601 27.2936 14.6537 26.8789 14.9306C26.4642 15.2075 25.9767 15.3552 25.478 15.355H22.958V12.834Z" fill="white"/>
<path d="M21.687 12.834C21.687 13.5026 21.4214 14.1438 20.9486 14.6166C20.4759 15.0894 19.8346 15.355 19.166 15.355C18.4974 15.355 17.8562 15.0894 17.3834 14.6166C16.9106 14.1438 16.645 13.5026 16.645 12.834V6.51999C16.645 5.85138 16.9106 5.21016 17.3834 4.73738C17.8562 4.2646 18.4974 3.99899 19.166 3.99899C19.8346 3.99899 20.4759 4.2646 20.9486 4.73738C21.4214 5.21016 21.687 5.85138 21.687 6.51999V12.834Z" fill="white"/>
<path d="M19.166 22.958C19.6647 22.958 20.1521 23.1059 20.5667 23.3829C20.9813 23.66 21.3044 24.0538 21.4952 24.5145C21.686 24.9752 21.7359 25.4821 21.6385 25.9712C21.5412 26.4603 21.301 26.9094 20.9483 27.262C20.5956 27.6145 20.1463 27.8545 19.6572 27.9517C19.1681 28.0488 18.6612 27.9988 18.2006 27.8078C17.7399 27.6169 17.3463 27.2936 17.0694 26.8789C16.7925 26.4642 16.6448 25.9767 16.645 25.478V22.958H19.166Z" fill="white"/>
<path d="M19.166 21.687C18.4974 21.687 17.8562 21.4214 17.3834 20.9486C16.9106 20.4758 16.645 19.8346 16.645 19.166C16.645 18.4974 16.9106 17.8562 17.3834 17.3834C17.8562 16.9106 18.4974 16.645 19.166 16.645H25.479C26.1476 16.645 26.7889 16.9106 27.2616 17.3834C27.7344 17.8562 28 18.4974 28 19.166C28 19.8346 27.7344 20.4758 27.2616 20.9486C26.7889 21.4214 26.1476 21.687 25.479 21.687H19.166Z" fill="white"/>
</svg>
