<svg width="13" height="13" viewBox="0 0 13 13" fill="none" xmlns="http://www.w3.org/2000/svg">
<path d="M2.74056 8.21829C2.74056 8.97387 2.13038 9.58453 1.37541 9.58453C0.620437 9.58453 0.0102539 8.97387 0.0102539 8.21829C0.0102539 7.46272 0.620437 6.85205 1.37541 6.85205H2.74056V8.21829ZM3.42314 8.21829C3.42314 7.46272 4.03332 6.85205 4.7883 6.85205C5.54327 6.85205 6.15345 7.46272 6.15345 8.21829V11.6339C6.15345 12.3895 5.54327 13.0001 4.7883 13.0001C4.03332 13.0001 3.42314 12.3895 3.42314 11.6339V8.21829Z" fill="#E01E5A"/>
<path d="M4.78838 2.73248C4.03341 2.73248 3.42323 2.12182 3.42323 1.36624C3.42323 0.610669 4.03341 0 4.78838 0C5.54336 0 6.15354 0.610669 6.15354 1.36624V2.73248H4.78838ZM4.78838 3.42596C5.54336 3.42596 6.15354 4.03662 6.15354 4.7922C6.15354 5.54777 5.54336 6.15844 4.78838 6.15844H1.36515C0.610183 6.15844 0 5.54777 0 4.7922C0 4.03662 0.610183 3.42596 1.36515 3.42596H4.78838Z" fill="#36C5F0"/>
<path d="M10.2591 4.7922C10.2591 4.03662 10.8693 3.42596 11.6242 3.42596C12.3792 3.42596 12.9894 4.03662 12.9894 4.7922C12.9894 5.54777 12.3792 6.15844 11.6242 6.15844H10.2591V4.7922ZM9.5765 4.7922C9.5765 5.54777 8.96632 6.15844 8.21135 6.15844C7.45637 6.15844 6.84619 5.54777 6.84619 4.7922V1.36624C6.84619 0.610669 7.45637 0 8.21135 0C8.96632 0 9.5765 0.610669 9.5765 1.36624V4.7922Z" fill="#2EB67D"/>
<path d="M8.21135 10.2677C8.96632 10.2677 9.5765 10.8783 9.5765 11.6339C9.5765 12.3895 8.96632 13.0001 8.21135 13.0001C7.45637 13.0001 6.84619 12.3895 6.84619 11.6339V10.2677H8.21135ZM8.21135 9.58453C7.45637 9.58453 6.84619 8.97387 6.84619 8.21829C6.84619 7.46272 7.45637 6.85205 8.21135 6.85205H11.6346C12.3895 6.85205 12.9997 7.46272 12.9997 8.21829C12.9997 8.97387 12.3895 9.58453 11.6346 9.58453H8.21135Z" fill="#ECB22E"/>
</svg>
