<svg width="22" height="20" viewBox="0 0 22 20" fill="none" xmlns="http://www.w3.org/2000/svg">
<path d="M12.2283 0C8.855 0 3.77667 1.00796 1.39333 3.28912C0.788332 3.87268 0 5.00442 0 6.68435C0 9.65517 2.475 14.1998 5.18833 16.8523C6.6 18.214 8.83667 20 11.8617 20C14.8133 20 17.0683 18.0548 17.71 17.4359C20.2033 15.0133 22 11.3528 22 7.92219C22 5.76481 21.3583 3.87268 19.745 2.29885C18.2417 0.831123 15.6567 0 12.2283 0ZM8.04833 11.8302C6.91167 10.7339 6.6 9.37224 6.6 8.62953C6.6 8.08134 6.74667 7.28559 7.44333 6.61362C8.525 5.57029 9.69833 5.28736 11 5.28736C12.6317 5.28736 13.7317 5.78249 14.465 6.48983C15.0333 7.03802 15.5283 7.90451 15.5283 9.12467C15.5283 10.3448 14.8683 11.5119 14.135 12.2193C13.4567 12.8736 12.4117 13.351 11.33 13.351C10.2483 13.351 9.185 12.9266 8.04833 11.8302Z" fill="#5A4FFB"/>
</svg>
