<svg width="27" height="27" viewBox="0 0 27 27" fill="none" xmlns="http://www.w3.org/2000/svg">
<g clip-path="url(#clip0)">
<path d="M5.21978 21.8475C5.27779 22.1481 5.09849 22.4329 4.79791 22.4962C4.51314 22.5542 4.2231 22.3749 4.16509 22.0743C4.10709 21.7895 4.28638 21.4889 4.57115 21.4256C4.85591 21.3624 5.1565 21.5469 5.21978 21.8475ZM12.7661 25.6128C12.4338 25.8553 12.3442 26.3194 12.571 26.6674C12.8135 27.0155 13.2776 27.1051 13.6256 26.8626C13.9579 26.62 14.0475 26.1559 13.8049 25.8079C13.5835 25.4651 13.1141 25.3702 12.7661 25.6128ZM8.23091 1.23366C8.56314 1.15983 8.77408 0.827601 8.70025 0.495374C8.64224 0.147328 8.31002 -0.06361 7.97779 0.0154916C7.64556 0.0893197 7.43462 0.421546 7.49791 0.753773C7.57173 1.10182 7.89869 1.31276 8.23091 1.23366ZM1.81314 11.9335C1.2858 11.5696 0.563336 11.7067 0.199469 12.2499C-0.164398 12.7772 -0.0272889 13.5155 0.500055 13.8794C1.0274 14.2538 1.74986 14.1219 2.11373 13.5788C2.47759 13.0303 2.34048 12.3079 1.81314 11.9335ZM16.1569 2.92116C16.7159 2.58893 16.8794 1.86647 16.5629 1.3233C16.2307 0.76432 15.5241 0.585023 14.9809 0.917249C14.4377 1.24948 14.2585 1.97194 14.5907 2.53092C14.9071 3.07409 15.6137 3.25338 16.1569 2.92116ZM6.07935 5.97975C6.48541 5.69498 6.57505 5.136 6.30611 4.72995C6.03716 4.32389 5.47818 4.23424 5.08794 4.50319C4.68189 4.78795 4.59224 5.34694 4.86119 5.75299C5.13013 6.16432 5.68384 6.25397 6.07935 5.97975ZM25.7124 14.2063C25.3221 14.296 25.0637 14.6862 25.1534 15.0975C25.2272 15.4878 25.6227 15.7462 26.0129 15.6565C26.4032 15.5827 26.6616 15.1872 26.5719 14.7811C26.4928 14.3909 26.1026 14.1325 25.7124 14.2063ZM27.8059 11.211C27.7479 10.9104 27.4579 10.7311 27.1731 10.7891C26.8725 10.8471 26.6932 11.153 26.7512 11.4536C26.8092 11.7383 27.0993 11.9335 27.3999 11.8755C27.6846 11.7964 27.8797 11.5116 27.8059 11.211ZM23.5713 7.32448C23.1178 7.64088 23.0124 8.25787 23.3129 8.71139C23.6135 9.16491 24.2305 9.27038 24.684 8.96979C25.1217 8.65338 25.2272 8.03639 24.9266 7.58288C24.626 7.12409 24.009 7.00807 23.5713 7.32448ZM23.2391 14.6756C24.626 16.9485 24.0354 19.9491 21.8522 21.4837C20.9346 22.1323 19.8958 22.4171 18.8516 22.3854C18.2188 24.8692 15.1919 25.7921 13.3092 24.1046C13.2512 24.152 13.1721 24.1942 13.1141 24.2575C11.0522 25.6866 8.24673 25.1751 6.81763 23.0815C6.30611 22.3274 6.04771 21.4678 6.02134 20.6083C2.57252 20.0335 1.27525 15.6512 3.85396 13.2413C2.36158 10.768 3.8856 7.5776 6.66998 7.18209C7.99361 3.69108 12.3442 2.03522 15.2973 4.32389C18.8516 3.14791 22.485 5.87428 22.2002 9.65534C24.3676 10.3198 24.9846 13.1833 23.2391 14.6756ZM19.5477 18.5938C19.3842 17.5075 17.3909 18.3512 17.2749 17.1647C17.1114 15.4772 19.5794 11.8333 19.3842 10.4147C19.2049 9.14909 18.3612 8.88014 17.6229 8.86432C16.9163 8.8485 16.7317 8.96979 16.4944 9.1069C16.3415 9.19655 16.1463 9.3653 15.8774 9.09108C15.5452 8.77467 15.292 8.47409 14.8544 8.4108C14.2057 8.30534 13.921 8.51627 13.4516 8.92233C13.2723 9.07526 12.8188 9.6026 12.3969 9.40221C12.2176 9.31256 11.5848 8.99616 11.1313 8.80104C10.2717 8.42663 9.02193 9.04362 8.56841 9.85573C7.88814 11.0633 6.56451 15.82 6.36939 16.4528C5.91587 17.8555 6.94419 19.0157 8.31529 18.9366C8.90064 18.9049 9.28033 18.694 9.65474 18.019C9.86568 17.6288 11.8538 12.3395 12.0067 12.0811C12.1122 11.9018 12.476 11.6592 12.7766 11.8122C13.0772 11.9756 13.1405 12.3079 13.093 12.6085C13.035 13.12 11.6165 16.3473 11.569 16.7059C11.3897 17.9135 12.9876 18.1087 13.6045 16.9169C13.7997 16.5424 16.0145 12.0337 16.2096 11.7331C16.4364 11.4008 16.5999 11.2954 16.8266 11.3112C16.9901 11.3112 17.2643 11.3587 17.201 11.886C17.1272 12.3817 15.3501 15.6987 15.1497 16.5108C14.9071 17.5971 15.4977 18.694 16.4627 19.1792C17.0639 19.4798 19.7586 20.0071 19.5477 18.5938ZM19.8483 23.4612C19.3051 23.8514 19.168 24.6214 19.5477 25.1803C19.9221 25.7393 20.6762 25.8712 21.2352 25.4967C21.7942 25.1065 21.926 24.3366 21.5516 23.7776C21.1614 23.2186 20.4073 23.0657 19.8483 23.4612Z" fill="#E52544"/>
</g>
<defs>
<clipPath id="clip0">
<rect width="27" height="27" fill="white"/>
</clipPath>
</defs>
</svg>
