<svg width="22" height="22" viewBox="0 0 22 22" fill="none" xmlns="http://www.w3.org/2000/svg">
<path fill-rule="evenodd" clip-rule="evenodd" d="M11 0C4.9243 0 0 5.04895 0 11.2784C0 16.2607 3.15089 20.4887 7.52266 21.9813C8.07299 22.0831 8.27151 21.7359 8.27151 21.4374C8.27151 21.1694 8.26268 20.4593 8.25937 19.5196C5.19892 20.2003 4.55264 18.0066 4.55264 18.0066C4.05414 16.7039 3.33176 16.3568 3.33176 16.3568C2.33367 15.6568 3.40786 15.6727 3.40786 15.6727C4.51293 15.7518 5.09194 16.8351 5.09194 16.8351C6.07349 18.5584 7.66824 18.0609 8.29246 17.7725C8.39282 17.0432 8.67957 16.5456 8.99278 16.2641C6.55103 15.9802 3.98356 15.0123 3.98356 10.6893C3.98356 9.46014 4.41257 8.45148 5.11289 7.66445C5.0015 7.37837 4.62102 6.23062 5.22208 4.67918C5.22208 4.67918 6.14518 4.375 8.24614 5.83372C9.14343 5.58344 10.069 5.45569 10.9989 5.45377C11.9288 5.45532 12.8544 5.58308 13.7517 5.83372C15.8537 4.37387 16.7757 4.67918 16.7757 4.67918C17.3768 6.23062 16.9996 7.37837 16.8849 7.66445C17.5907 8.45148 18.0142 9.45901 18.0142 10.6893C18.0142 15.0236 15.4446 15.9757 12.994 16.255C13.3855 16.6033 13.7384 17.2908 13.7384 18.3425C13.7384 19.8509 13.7252 21.0676 13.7252 21.4374C13.7252 21.7393 13.9215 22.0899 14.4829 21.9791C18.8524 20.4842 22 16.2595 22 11.2784C22 5.04895 17.0757 0 11 0Z" fill="black"/>
</svg>
