<svg width="51" height="51" viewBox="0 0 51 51" fill="none" xmlns="http://www.w3.org/2000/svg">
<g clip-path="url(#clip0)">
<path d="M10.7522 32.2405C10.7522 35.2047 8.35844 37.6004 5.39662 37.6004C2.43481 37.6004 0.0410156 35.2047 0.0410156 32.2405C0.0410156 29.2763 2.43481 26.8806 5.39662 26.8806H10.7522V32.2405ZM13.43 32.2405C13.43 29.2763 15.8238 26.8806 18.7856 26.8806C21.7475 26.8806 24.1413 29.2763 24.1413 32.2405V45.6402C24.1413 48.6043 21.7475 51 18.7856 51C15.8238 51 13.43 48.6043 13.43 45.6402V32.2405Z" fill="#E01E5A"/>
<path d="M18.7852 10.7197C15.8234 10.7197 13.4296 8.32404 13.4296 5.35987C13.4296 2.3957 15.8234 0 18.7852 0C21.747 0 24.1408 2.3957 24.1408 5.35987V10.7197H18.7852ZM18.7852 13.4403C21.747 13.4403 24.1408 15.836 24.1408 18.8002C24.1408 21.7643 21.747 24.16 18.7852 24.16H5.35561C2.39379 24.16 0 21.7643 0 18.8002C0 15.836 2.39379 13.4403 5.35561 13.4403H18.7852Z" fill="#36C5F0"/>
<path d="M40.2484 18.8002C40.2484 15.836 42.6422 13.4403 45.604 13.4403C48.5658 13.4403 50.9596 15.836 50.9596 18.8002C50.9596 21.7643 48.5658 24.16 45.604 24.16H40.2484V18.8002ZM37.5706 18.8002C37.5706 21.7643 35.1768 24.16 32.215 24.16C29.2532 24.16 26.8594 21.7643 26.8594 18.8002V5.35987C26.8594 2.3957 29.2532 0 32.215 0C35.1768 0 37.5706 2.3957 37.5706 5.35987V18.8002Z" fill="#2EB67D"/>
<path d="M32.215 40.2803C35.1768 40.2803 37.5706 42.676 37.5706 45.6402C37.5706 48.6043 35.1768 51 32.215 51C29.2532 51 26.8594 48.6043 26.8594 45.6402V40.2803H32.215ZM32.215 37.6004C29.2532 37.6004 26.8594 35.2047 26.8594 32.2405C26.8594 29.2763 29.2532 26.8806 32.215 26.8806H45.6446C48.6064 26.8806 51.0002 29.2763 51.0002 32.2405C51.0002 35.2047 48.6064 37.6004 45.6446 37.6004H32.215Z" fill="#ECB22E"/>
</g>
<defs>
<clipPath id="clip0">
<rect width="51" height="51" fill="white"/>
</clipPath>
</defs>
</svg>
