<svg width="52" height="77" viewBox="0 0 52 77" fill="none" xmlns="http://www.w3.org/2000/svg">
<path d="M9 30.3999V34.2999" stroke="#E36E2A" stroke-width="2.5" stroke-miterlimit="10" stroke-linecap="round" stroke-linejoin="round"/>
<path d="M20.5 24.2V16.2H25.9C26.6 16.2 26.9 15.7 27 15.4C27.3 14.7 27.2 13.9 26.8 13.5L15.9 2.6C15.1 1.8 13.9 1.8 13.2 2.6L2.4 13.5C2 13.9 1.9 14.7 2.1 15.3C2.3 15.8 2.8 16.1 3.4 16.1H9V25.3" stroke="#E36E2A" stroke-width="2.5" stroke-linecap="round"/>
<path d="M40.8999 55V57.9" stroke="#E36E2A" stroke-width="2.5" stroke-miterlimit="10" stroke-linecap="round" stroke-linejoin="round"/>
<path d="M25.3999 60.8V63.4" stroke="#E36E2A" stroke-width="2.5" stroke-miterlimit="10" stroke-linecap="round" stroke-linejoin="round"/>
<path d="M25.3999 51.2002V55.8002" stroke="#E36E2A" stroke-width="2.5" stroke-miterlimit="10" stroke-linecap="round" stroke-linejoin="round"/>
<path d="M40.8999 50.2001V38.8001H48.0998C48.9998 38.8001 49.3998 38.1001 49.5998 37.7001C49.9998 36.8001 49.7999 35.7001 49.2999 35.2001L34.6999 20.6001C33.6999 19.6001 31.9999 19.6001 30.9999 20.6001L16.4999 35.2001C15.8999 35.8001 15.7999 36.9001 16.0999 37.7001C16.3999 38.4001 16.9999 38.8001 17.8999 38.8001H25.3999V46.5001" stroke="#E36E2A" stroke-width="2.5" stroke-linecap="round"/>
<path d="M32.8999 44.2V57.0999" stroke="#E36E2A" stroke-width="2.5" stroke-miterlimit="10" stroke-linecap="round" stroke-linejoin="round"/>
<path d="M32.8999 62.0999V68.4998" stroke="#E36E2A" stroke-width="2.5" stroke-miterlimit="10" stroke-linecap="round" stroke-linejoin="round"/>
<path d="M32.8999 73.5V75.5" stroke="#E36E2A" stroke-width="2.5" stroke-miterlimit="10" stroke-linecap="round" stroke-linejoin="round"/>
</svg>
