<svg width="57" height="56" viewBox="0 0 57 56" fill="none" xmlns="http://www.w3.org/2000/svg">
<path d="M50.3002 48.5483C49.7002 49.7483 48.4002 51.7484 45.5002 51.7484H14.7002" stroke="#E36E2A" stroke-width="2.5" stroke-miterlimit="10"/>
<path d="M15 23.0485C17.9 22.1485 29 18.0485 29 5.24848C29 5.24848 29.3 2.04847 32.8 2.04847C32.8 2.04847 36.7 1.24848 37.2 6.14848C37.2 6.14848 38.2 14.7485 35.4 20.3485H52.2C52.2 20.3485 53.9 20.0485 54.7 22.2485" stroke="#E36E2A" stroke-width="2.5" stroke-miterlimit="10"/>
<path d="M0.900024 22.1484H9.20001V54.0484H0" stroke="#E36E2A" stroke-width="2.5" stroke-miterlimit="10"/>
<path d="M49.1001 28.4485H50.6001" stroke="#E36E2A" stroke-width="2.5" stroke-miterlimit="10" stroke-linecap="round"/>
<path d="M54.8999 24.9485C54.5999 26.5485 53.3999 28.5485 50.3999 28.4485" stroke="#E36E2A" stroke-width="2.5" stroke-miterlimit="10"/>
<path d="M48.2002 36.3484H49.7002" stroke="#E36E2A" stroke-width="2.5" stroke-miterlimit="10" stroke-linecap="round"/>
<path d="M54 32.8484C53.7 34.4484 52.5 36.4484 49.5 36.3484" stroke="#E36E2A" stroke-width="2.5" stroke-miterlimit="10"/>
<path d="M46.2002 44.2485H47.8002" stroke="#E36E2A" stroke-width="2.5" stroke-miterlimit="10" stroke-linecap="round"/>
<path d="M52 40.7485C51.7 42.3485 50.5 44.3485 47.5 44.2485" stroke="#E36E2A" stroke-width="2.5" stroke-miterlimit="10"/>
</svg>
