<svg width="80" height="68" viewBox="0 0 80 68" fill="none" xmlns="http://www.w3.org/2000/svg">
<path d="M78.8281 35.4443C79.4688 35.4443 80 34.9134 80 34.2732V30.5571C80 27.5904 77.5781 25.1858 74.625 25.1858H70.0469L45.1875 7.80712C45.4688 7.13571 45.625 6.38622 45.625 5.62112C45.625 2.51389 43.1094 0 40 0C36.8906 0 34.375 2.51389 34.375 5.62112C34.375 6.40184 34.5312 7.13571 34.8125 7.80712L9.96875 25.1701H5.375C2.40625 25.1701 0 27.5904 0 30.5414V62.6131C0 65.5798 2.42188 67.9844 5.375 67.9844H74.6094C77.5781 67.9844 79.9844 65.5642 79.9844 62.6131V41.0654C79.9844 39.5509 77.6406 39.5509 77.6406 41.0654V62.6287C77.6406 64.2994 76.2812 65.6579 74.6094 65.6579H5.375C3.70313 65.6579 2.34375 64.2994 2.34375 62.6287V30.5571C2.34375 28.8863 3.70313 27.5279 5.375 27.5279H74.6094C76.2812 27.5279 77.6406 28.8863 77.6406 30.5571V34.2732C77.6562 34.9134 78.1875 35.4443 78.8281 35.4443ZM36.7188 5.62112C36.7188 3.80987 38.1875 2.34214 40 2.34214C41.8125 2.34214 43.2812 3.80987 43.2812 5.62112C43.2812 7.36992 41.75 8.90011 40 8.90011C38.25 8.90011 36.7188 7.36992 36.7188 5.62112ZM14.0625 25.1701L36.1719 9.72767C38.3125 11.7263 41.7031 11.7263 43.8438 9.72767L65.9375 25.1701H14.0625Z" fill="#E36E2A"/>
<path d="M5.85938 57.2262C5.21875 57.2262 4.6875 57.7571 4.6875 58.3973V61.083C4.6875 62.3165 5.6875 63.3314 6.9375 63.3314H73.0781C74.3125 63.3314 75.3281 62.3321 75.3281 61.083V32.1029C75.3281 30.8694 74.3281 29.8545 73.0781 29.8545H6.9375C5.70313 29.8545 4.6875 30.8538 4.6875 32.1029V51.8393C4.6875 53.3539 7.03125 53.3539 7.03125 51.8393V32.1966H72.9688V60.9737H7.03125V58.3973C7.03125 57.7415 6.5 57.2262 5.85938 57.2262Z" fill="#E36E2A"/>
<path d="M54.3906 41.5183C53.9063 41.6744 53.5625 42.1272 53.5625 42.6425V50.5745C53.5625 52.0891 55.9063 52.0891 55.9063 50.5745V46.4055L59.125 51.0742C59.875 52.1515 61.4688 51.5738 61.4688 50.2934L61.3906 42.6269C61.375 41.1591 59.0313 41.1123 59.0469 42.6425L59.0938 46.9052L55.7031 41.9867C55.4063 41.5495 54.875 41.3621 54.3906 41.5183Z" fill="#E36E2A"/>
<path d="M47.6563 43.8292C49.1719 43.8292 49.1719 41.4871 47.6563 41.4871H44.3438C43.7031 41.4871 43.1719 42.0179 43.1719 42.6581V50.5277C43.1719 51.1679 43.7031 51.6988 44.3438 51.6988H47.6563C49.1719 51.6988 49.1719 49.3566 47.6563 49.3566H45.5156V47.764H47.4219C48.9375 47.764 48.9375 45.4218 47.4219 45.4218H45.5156V43.8292H47.6563Z" fill="#E36E2A"/>
<path d="M33.9219 50.5589V48.2792C34.3125 48.2792 34.7187 48.2792 34.9687 48.2792C36.875 48.2792 38.4219 46.749 38.4219 44.8753C38.4219 43.0016 36.875 41.4714 34.9687 41.4714H32.75C32.0625 41.4714 31.6406 42.0179 31.5781 42.6425V50.5745C31.5781 52.0735 33.9219 52.0735 33.9219 50.5589ZM34.9531 43.7823C35.5625 43.7823 36.0625 44.2664 36.0625 44.8441C36.0625 45.4218 35.5469 45.9059 34.9531 45.9059C34.7031 45.9059 34.3125 45.9059 33.9219 45.9059C33.9219 45.4999 33.9219 45.0783 33.9219 44.8285C33.9219 44.6099 33.9219 44.1883 33.9219 43.7667H34.9531V43.7823Z" fill="#E36E2A"/>
<path d="M26.8281 46.5929C26.8281 43.7511 24.5156 41.4558 21.6875 41.4558C18.8438 41.4558 16.5469 43.7667 16.5469 46.5929C16.5469 49.4191 18.8594 51.73 21.6875 51.73C24.5156 51.73 26.8281 49.4191 26.8281 46.5929ZM18.8906 46.5929C18.8906 45.0471 20.1406 43.7979 21.6875 43.7979C23.2344 43.7979 24.4844 45.0471 24.4844 46.5929C24.4844 48.1387 23.2344 49.3878 21.6875 49.3878C20.1406 49.3878 18.8906 48.1387 18.8906 46.5929Z" fill="#E36E2A"/>
</svg>
