<svg width="61" height="59" viewBox="0 0 61 59" fill="none" xmlns="http://www.w3.org/2000/svg">
<path d="M10.0483 12.5516C17.4483 2.95162 30.5483 -0.648375 41.9483 4.05163" stroke="#E36E2A" stroke-width="2.5" stroke-miterlimit="10" stroke-linejoin="round"/>
<path d="M46.8485 52.2516C38.8485 57.5516 28.3485 58.5516 19.1485 53.8516C8.14845 48.2516 2.54845 36.1516 4.64845 24.6516" stroke="#E36E2A" stroke-width="2.5" stroke-miterlimit="10" stroke-linejoin="round"/>
<path d="M52.9487 12.1516C59.5487 20.3516 61.1487 31.9516 56.0487 41.8516" stroke="#E36E2A" stroke-width="2.5" stroke-miterlimit="10" stroke-linejoin="round"/>
<path d="M18.7487 40.0517C14.6487 35.0517 13.6487 27.9517 16.7487 21.7517C20.9487 13.5517 31.0487 10.2517 39.3487 14.4517C47.5487 18.6517 50.8487 28.7517 46.6487 37.0517C43.5487 43.1517 37.2487 46.4517 30.8487 46.1517" stroke="#E36E2A" stroke-width="2.5" stroke-miterlimit="10"/>
<path d="M53.3802 11.5199C54.6779 9.66423 54.2256 7.10794 52.3699 5.81024C50.5143 4.51253 47.958 4.96482 46.6603 6.82046C45.3626 8.67611 45.8149 11.2324 47.6705 12.5301C49.5262 13.8278 52.0824 13.3755 53.3802 11.5199Z" stroke="#E36E2A" stroke-width="2.5" stroke-miterlimit="10" stroke-linejoin="round"/>
<path d="M25.3988 45.3718C26.6963 43.5162 26.2438 40.9601 24.3881 39.6626C22.5325 38.3651 19.9764 38.8176 18.6789 40.6732C17.3814 42.5289 17.8339 45.085 19.6895 46.3825C21.5452 47.68 24.1013 47.2275 25.3988 45.3718Z" stroke="#E36E2A" stroke-width="2.5" stroke-miterlimit="10" stroke-linejoin="round"/>
<path d="M11.0692 18.5323C12.3671 16.6769 11.9152 14.1206 10.0598 12.8227C8.20437 11.5247 5.64806 11.9767 4.35012 13.8321C3.05219 15.6875 3.50412 18.2438 5.35955 19.5418C7.21497 20.8397 9.77127 20.3878 11.0692 18.5323Z" stroke="#E36E2A" stroke-width="2.5" stroke-miterlimit="10" stroke-linejoin="round"/>
<path d="M53.6317 51.9297C54.9292 50.0741 54.4767 47.5179 52.621 46.2204C50.7654 44.923 48.2093 45.3755 46.9118 47.2311C45.6143 49.0868 46.0668 51.6429 47.9224 52.9404C49.7781 54.2378 52.3342 53.7854 53.6317 51.9297Z" stroke="#E36E2A" stroke-width="2.5" stroke-miterlimit="10" stroke-linejoin="round"/>
<path d="M38.0035 32.6718C39.79 29.1811 38.4085 24.9031 34.9179 23.1166C31.4272 21.3301 27.1492 22.7116 25.3627 26.2023C23.5762 29.693 24.9577 33.971 28.4484 35.7575C31.939 37.544 36.217 36.1625 38.0035 32.6718Z" stroke="#E36E2A" stroke-width="2.5" stroke-miterlimit="10"/>
</svg>
