<svg width="69" height="69" viewBox="0 0 69 69" fill="none" xmlns="http://www.w3.org/2000/svg">
<g clip-path="url(#clip0)">
<path d="M67.85 11.5H40.25C39.6175 11.5 39.1 12.0175 39.1 12.65V23C39.1 23.6325 39.6175 24.15 40.25 24.15C40.3794 24.15 40.4944 24.1356 40.6094 24.0925L42.0612 23.6037C43.6281 23.0862 45.3244 23.9487 45.8275 25.5156C46.3306 27.0825 45.4825 28.7787 43.9156 29.2819C43.3119 29.4831 42.665 29.4831 42.0612 29.2819L40.6094 28.7931C40.0056 28.5919 39.3587 28.9225 39.1575 29.5262C39.1144 29.6412 39.1 29.7706 39.1 29.8856V39.0856H29.9C29.2675 39.0856 28.75 39.6031 28.75 40.2356C28.75 40.365 28.7644 40.48 28.8075 40.595L29.2962 42.0469C29.8137 43.6138 28.9512 45.31 27.3844 45.8131C25.8175 46.3306 24.1212 45.4681 23.6181 43.9012C23.4169 43.2975 23.4169 42.6506 23.6181 42.0469L24.1069 40.595C24.3081 39.9912 23.9775 39.3444 23.3737 39.1431C23.2587 39.1 23.1294 39.0856 23.0144 39.0856H12.65C12.0175 39.0856 11.5 39.6031 11.5 40.2356V67.8356C11.5 68.4681 12.0175 68.9856 12.65 68.9856H67.85C68.4825 68.9856 69 68.4681 69 67.8356V12.65C69 12.0175 68.4825 11.5 67.85 11.5ZM39.1575 57.1406C39.1144 57.2556 39.1 57.385 39.1 57.5V66.7H13.8V41.4H21.4044C20.5275 44.1887 22.0656 47.1644 24.8544 48.0413C27.6431 48.9181 30.6187 47.38 31.4956 44.5913C31.8262 43.5563 31.8262 42.4494 31.4956 41.4144H39.1V50.6144C39.1 51.2469 39.6175 51.7644 40.25 51.7644C40.3794 51.7644 40.4944 51.75 40.6094 51.7069L42.0612 51.2181C43.6281 50.7006 45.3244 51.5631 45.8275 53.13C46.3306 54.6969 45.4825 56.3931 43.9156 56.8962C43.3119 57.0975 42.665 57.0975 42.0612 56.8962L40.6094 56.4075C40.0056 56.2062 39.3587 56.5369 39.1575 57.1406ZM66.7 66.7H41.4V59.0956C44.1887 59.9725 47.1644 58.4344 48.0412 55.6456C48.9181 52.8569 47.38 49.8812 44.5912 49.0044C43.5562 48.6737 42.4494 48.6737 41.4144 49.0044V41.4H50.6144C51.2469 41.4 51.7644 40.8825 51.7644 40.25C51.7644 40.1206 51.75 40.0056 51.7069 39.8906L51.2181 38.4387C50.7006 36.8719 51.5631 35.1756 53.13 34.6725C54.6969 34.1694 56.3931 35.0175 56.8962 36.5844C57.0975 37.1881 57.0975 37.835 56.8962 38.4387L56.4075 39.8906C56.2062 40.4944 56.5369 41.1413 57.1406 41.3425C57.2556 41.3856 57.385 41.4 57.5 41.4H66.7V66.7ZM66.7 39.1H59.0956C59.9725 36.3112 58.4344 33.3356 55.6456 32.4587C52.8569 31.5819 49.8812 33.12 49.0044 35.9088C48.6737 36.9438 48.6737 38.0506 49.0044 39.0856H41.4V31.4812C42.9956 31.9987 44.7494 31.7256 46.1006 30.7337C48.4725 29.0375 49.0331 25.7312 47.3369 23.3594C46 21.4762 43.5994 20.6856 41.4 21.4044V13.8H66.7V39.1Z" fill="#E36E2A"/>
<path d="M33.0769 9.90438C32.0419 9.57375 30.935 9.57375 29.9 9.90438V1.15C29.9 0.5175 29.3825 0 28.75 0H1.15C0.5175 0 0 0.5175 0 1.15V28.75C0 29.3825 0.5175 29.9 1.15 29.9H9.90438C9.0275 32.6887 10.5656 35.6644 13.3544 36.5412C16.1431 37.4181 19.1187 35.88 19.9956 33.0912C20.3263 32.0562 20.3263 30.9494 19.9956 29.9144H28.75C29.3825 29.9144 29.9 29.3969 29.9 28.7644V20.01C32.6887 20.8869 35.6644 19.3487 36.5412 16.56C37.4181 13.7569 35.8656 10.7812 33.0769 9.90438ZM32.4156 17.7962C31.8119 17.9975 31.165 17.9975 30.5613 17.7962L29.1094 17.3075C28.5056 17.1063 27.8587 17.4369 27.6575 18.0406C27.6144 18.1556 27.6 18.285 27.6 18.4V27.6H18.4C17.7675 27.6 17.25 28.1175 17.25 28.75C17.25 28.8794 17.2644 28.9944 17.3075 29.1094L17.7962 30.5613C18.3137 32.1281 17.4513 33.8244 15.8844 34.3275C14.3175 34.845 12.6213 33.9825 12.1181 32.4156C11.9169 31.8119 11.9169 31.165 12.1181 30.5613L12.6069 29.1094C12.8081 28.5056 12.4775 27.8587 11.8737 27.6575C11.7587 27.6144 11.6294 27.6 11.5144 27.6H2.3V2.3H27.6V11.5C27.6 12.1325 28.1175 12.65 28.75 12.65C28.8794 12.65 28.9944 12.6356 29.1094 12.5925L30.5613 12.1037C32.1281 11.5862 33.8244 12.4487 34.3275 14.0156C34.845 15.5825 33.9825 17.2787 32.4156 17.7962Z" fill="#E36E2A"/>
</g>
<defs>
<clipPath id="clip0">
<rect width="69" height="69" fill="white"/>
</clipPath>
</defs>
</svg>
