<svg width="64" height="72" viewBox="0 0 64 72" fill="none" xmlns="http://www.w3.org/2000/svg">
<path d="M31.9 2C31.9 2 22.5 11.9 22.5 16.1C22.5 18.6 22.5 52 22.5 52H41.3C41.3 52 41.3 18.6 41.3 16.1C41.3 12 31.9 2 31.9 2Z" stroke="#E36E2A" stroke-width="2.5" stroke-miterlimit="10" stroke-linejoin="round"/>
<path d="M22.5 24.8C22.5 27.3 19.9 32.3001 14.5 36.7001C13.4 37.5001 12.4 38.4001 11.7 39.6001C11.1 40.7001 11 42.1 11 43.4C11 44.7 11 48.8001 11 48.8001H18.3" stroke="#E36E2A" stroke-width="2.5" stroke-miterlimit="10" stroke-linejoin="round"/>
<path d="M41.3999 24.8C41.3999 27.3 43.9999 32.3001 49.3999 36.7001C50.4999 37.5001 51.4999 38.4001 52.1999 39.6001C52.7999 40.7001 52.8999 42.1 52.8999 43.4C52.8999 44.7 52.8999 48.8001 52.8999 48.8001H45.3999" stroke="#E36E2A" stroke-width="2.5" stroke-miterlimit="10" stroke-linejoin="round"/>
<path d="M35.4001 19.2999C34.8001 18.3999 33.5001 17.7 32.0001 17.7C30.5001 17.7 29.1001 18.3999 28.6001 19.2999" stroke="#E36E2A" stroke-width="2.5" stroke-miterlimit="10" stroke-linecap="round" stroke-linejoin="round"/>
<path d="M35.7998 53C35.7998 53 35.9998 67.6 41.7998 69.9C41.0998 67.6 42.3998 65.1 44.6998 64.4C45.8998 64 47.0998 64.2 48.0998 64.7C49.0998 65.2 49.7998 66.1 50.1998 67.2" stroke="#E36E2A" stroke-width="2.5" stroke-miterlimit="10" stroke-linecap="round" stroke-linejoin="round"/>
<path d="M62.0999 66.4001C61.9999 64.4001 61.1999 62.7001 59.7999 61.5001C58.3999 60.2001 56.5999 59.4001 54.4999 59.5001C51.2999 59.6001 48.6999 61.8001 47.8999 64.7001" stroke="#E36E2A" stroke-width="2.5" stroke-miterlimit="10" stroke-linecap="round"/>
<path d="M13.8999 67.3001C14.1999 66.2001 14.9999 65.3001 15.9999 64.8001C16.9999 64.3001 18.1999 64.1001 19.3999 64.5001C21.6999 65.2001 22.9999 67.7001 22.2999 70.0001C28.1999 68.2001 28.2999 53.1001 28.2999 53.1001" stroke="#E36E2A" stroke-width="2.5" stroke-miterlimit="10" stroke-linecap="round" stroke-linejoin="round"/>
<path d="M2 66.4001C2.1 64.4001 2.9 62.7001 4.3 61.5001C5.7 60.2001 7.5 59.4001 9.6 59.5001C10.4 59.5001 11.2 59.7001 12 60.0001" stroke="#E36E2A" stroke-width="2.5" stroke-miterlimit="10" stroke-linecap="round"/>
<path d="M31.8999 51.6001V37.1001" stroke="#E36E2A" stroke-width="2.5" stroke-miterlimit="10" stroke-linecap="round" stroke-linejoin="round"/>
</svg>
