<svg width="90" height="101" viewBox="0 0 90 101" fill="none" xmlns="http://www.w3.org/2000/svg">
<path d="M81.6508 35.5613H74.7538C74.5075 35.5613 74.2611 35.5613 74.0148 35.5613C73.2758 33.341 72.5368 31.3674 71.5515 29.3938C71.7979 29.1471 72.0442 29.147 72.0442 28.9003L76.9707 24.213C78.9413 22.2393 79.1876 19.0322 77.217 16.8119L72.5368 11.8778C70.5662 9.9042 67.364 9.65749 65.1471 11.6311L60.2206 16.3185C59.9743 16.5652 59.728 16.8119 59.728 17.0586C57.2648 15.5784 54.5552 14.5916 51.8456 13.6047C51.8456 13.358 51.8456 13.1113 51.8456 12.8646V5.95695C51.8456 2.99651 49.3824 0.776184 46.6728 0.776184H39.7758C36.8199 0.776184 34.603 3.24321 34.603 5.95695V12.8646C34.603 13.1113 34.603 13.358 34.603 13.6047C32.6324 14.0982 30.6618 15.085 28.6912 15.8251C28.6912 15.5784 28.4449 15.5784 28.4449 15.3317L23.7648 10.3976C21.7942 8.42398 18.592 8.17728 16.375 10.1509L11.4486 14.8383C9.47799 16.8119 9.23165 20.019 11.2022 22.2394L15.8824 27.1734C15.8824 27.1734 16.1287 27.4201 16.375 27.4201C14.8971 29.8872 13.6655 32.6009 12.9265 35.5613H12.6802H5.78313C2.82724 35.5613 0.610352 38.0284 0.610352 40.7421V47.6498C0.610352 50.6102 3.07357 52.8306 5.78313 52.8306H12.6802H12.9265C13.4192 54.8042 14.1581 56.7778 15.1434 58.5047L14.8971 58.7514L9.97062 63.4388C8.00003 65.4124 7.75373 68.6195 9.72432 70.8399L14.4045 75.7739C16.375 77.7476 19.5772 77.9943 21.7942 76.0206L26.7206 71.3333C26.7206 71.3333 26.7206 71.3333 26.967 71.0866C29.4302 72.5668 32.1398 73.8003 35.0957 74.5404C35.0957 74.7871 35.0957 74.7871 35.0957 75.0338V81.9415C35.0957 84.902 37.5589 87.1223 40.2684 87.1223H47.1655C50.1214 87.1223 52.3383 84.6553 52.3383 81.9415V75.0338C52.3383 74.7871 52.3383 74.7871 52.3383 74.5404C54.5552 74.047 56.5258 73.0602 58.2501 72.0734C58.2501 72.3201 58.4964 72.3201 58.4964 72.5668L63.1765 77.5009C65.1471 79.4745 68.3493 79.7212 70.5662 77.7476L75.4927 73.0602C77.4633 71.0866 77.7096 67.8794 75.7391 65.6591L71.0589 60.725C70.8126 60.4783 70.8126 60.4784 70.5662 60.2316C72.0442 57.7646 73.2758 55.0509 74.0148 52.3371C74.2611 52.3371 74.5075 52.3371 74.7538 52.3371H81.6508C84.6067 52.3371 86.8236 49.8701 86.8236 47.1564V40.2487C86.8236 37.7816 84.3604 35.5613 81.6508 35.5613ZM43.4706 65.1657C31.8934 65.1657 22.7795 56.0377 22.5331 44.4426C22.5331 32.8476 31.6471 23.7196 43.2243 23.4729C54.5552 23.4729 63.9155 32.6009 64.1618 44.1959C64.1618 55.791 55.0479 65.1657 43.4706 65.1657Z" fill="white" stroke="#83CEE7" stroke-width="1.2" stroke-miterlimit="10" stroke-linecap="round" stroke-linejoin="round"/>
<path d="M86.8233 79.7212C86.8233 89.836 78.6947 97.9773 68.5954 98.224C58.4961 98.224 50.3674 90.0828 50.1211 79.9679C50.1211 69.8531 58.2498 61.7119 68.349 61.4652C78.4483 61.4652 86.8233 69.6064 86.8233 79.7212Z" fill="white" stroke="#83CEE7" stroke-width="1.2" stroke-miterlimit="10" stroke-linecap="round" stroke-linejoin="round"/>
<path d="M67.8558 99.4575C57.0175 99.4575 48.3962 90.8229 48.1499 79.968C48.1499 69.113 56.7713 60.4784 67.3632 60.2317C75.9845 60.2317 83.3741 65.6592 86.0837 73.5537C86.33 74.2938 85.8374 74.7872 85.3447 75.0339C84.6058 75.2806 84.1131 74.7872 83.8668 74.2938C81.6499 67.1394 74.9991 62.452 67.6094 62.452C58.2491 62.452 50.6131 70.3465 50.6131 79.7212C50.6131 89.096 58.4955 96.7438 67.8558 96.7438C74.7528 96.7438 80.9109 92.5498 83.6205 86.1355C83.8668 85.6421 84.6058 85.1487 85.0984 85.3954C85.5911 85.6421 86.0837 86.3822 85.8374 86.8756C82.6352 94.5234 75.7381 99.4575 67.8558 99.4575Z" fill="#83CEE7" stroke="#83CEE7" stroke-width="1.2" stroke-miterlimit="10" stroke-linecap="round" stroke-linejoin="round"/>
<path d="M85.8376 77.7476C85.5913 77.7476 85.3449 77.7476 85.0986 77.5009L80.1721 74.2938C79.6794 74.0471 79.4331 73.0603 79.9258 72.5669C80.1721 72.0735 81.1574 71.8268 81.6501 72.3202L85.3449 74.7872L86.8229 70.5932C87.0692 69.8531 87.8082 69.6064 88.3008 69.8531C89.0398 70.0998 89.2861 70.84 89.0398 71.3334L87.0692 77.0075C87.0692 77.2542 86.5765 77.7476 86.3302 77.7476C86.0839 77.7476 85.8376 77.7476 85.8376 77.7476Z" fill="#83CEE7" stroke="#83CEE7" stroke-width="1.2" stroke-miterlimit="10" stroke-linecap="round" stroke-linejoin="round"/>
<path d="M67.8566 84.1619C67.364 84.1619 67.1177 83.9152 66.8713 83.6685L59.728 74.2938C59.2354 73.8004 59.4817 73.0603 59.9743 72.5669C60.467 72.0735 61.2059 72.3202 61.6986 72.8136L67.8566 80.7081L71.0589 75.2806C71.3052 74.7872 72.0441 74.5405 72.7831 74.7872C73.2757 75.0339 73.5221 75.774 73.2757 76.5141L69.0882 83.4218C68.8419 84.1619 68.3493 84.1619 67.8566 84.1619C68.1029 84.1619 68.1029 84.1619 67.8566 84.1619Z" fill="#83CEE7"/>
<path d="M67.8566 84.1619C67.364 84.1619 67.1177 83.9152 66.8713 83.6685L59.728 74.2938C59.2354 73.8004 59.4817 73.0603 59.9743 72.5669C60.467 72.0735 61.2059 72.3202 61.6986 72.8136L67.8566 80.7081L71.0589 75.2806C71.3052 74.7872 72.0441 74.5405 72.7831 74.7872C73.2757 75.0339 73.5221 75.774 73.2757 76.5141L69.0882 83.4218C68.8419 84.1619 68.3493 84.1619 67.8566 84.1619ZM67.8566 84.1619C68.1029 84.1619 68.1029 84.1619 67.8566 84.1619Z" stroke="#83CEE7" stroke-width="1.2" stroke-miterlimit="10" stroke-linecap="round" stroke-linejoin="round"/>
</svg>
