<svg width="114" height="114" viewBox="0 0 114 114" fill="none" xmlns="http://www.w3.org/2000/svg">
<path d="M85.982 57.1034C85.982 72.8924 73.1732 85.721 57.4085 85.721C41.6438 85.721 28.835 72.8924 28.835 57.1034C28.835 41.3144 41.6438 28.4859 57.4085 28.4859C73.1732 28.4859 85.982 41.3144 85.982 57.1034Z" fill="white" stroke="#83CEE7" stroke-width="1.2" stroke-miterlimit="10" stroke-linecap="round" stroke-linejoin="round"/>
<path d="M63.3188 108.171C63.3188 110.885 61.1019 113.105 58.3923 113.105C55.6827 113.105 53.4658 110.885 53.4658 108.171C53.4658 105.458 55.6827 103.237 58.3923 103.237C61.1019 103.237 63.3188 105.458 63.3188 108.171Z" fill="white" stroke="#83CEE7" stroke-width="1.2" stroke-miterlimit="10" stroke-linecap="round" stroke-linejoin="round"/>
<path d="M58.3926 102.744V97.3162" stroke="#83CEE7" stroke-width="1.2" stroke-miterlimit="10" stroke-linecap="round" stroke-linejoin="round"/>
<path d="M52.2354 5.78927C52.2354 3.07554 54.4523 0.855206 57.1618 0.855206C59.8714 0.855206 62.0883 3.07554 62.0883 5.78927C62.0883 8.50301 59.8714 10.7233 57.1618 10.7233C54.4523 10.7233 52.2354 8.50301 52.2354 5.78927Z" fill="white" stroke="#83CEE7" stroke-width="1.2" stroke-miterlimit="10" stroke-linecap="round" stroke-linejoin="round"/>
<path d="M57.1616 11.2167V16.6442" stroke="#83CEE7" stroke-width="1.2" stroke-miterlimit="10" stroke-linecap="round" stroke-linejoin="round"/>
<path d="M5.92647 62.531C3.21691 62.531 1 60.3107 1 57.597C1 54.8832 3.21691 52.6629 5.92647 52.6629C8.63603 52.6629 10.8529 54.8832 10.8529 57.597C10.8529 60.3107 8.63603 62.531 5.92647 62.531Z" fill="white" stroke="#83CEE7" stroke-width="1.2" stroke-miterlimit="10" stroke-linecap="round" stroke-linejoin="round"/>
<path d="M11.3462 57.597H16.7653" stroke="#83CEE7" stroke-width="1.2" stroke-miterlimit="10" stroke-linecap="round" stroke-linejoin="round"/>
<path d="M108.152 51.4294C110.861 51.4294 113.078 53.6497 113.078 56.3634C113.078 59.0771 110.861 61.2975 108.152 61.2975C105.442 61.2975 103.225 59.0771 103.225 56.3634C103.225 53.6497 105.442 51.4294 108.152 51.4294Z" fill="white" stroke="#83CEE7" stroke-width="1.2" stroke-miterlimit="10" stroke-linecap="round" stroke-linejoin="round"/>
<path d="M102.732 56.3633H97.3125" stroke="#83CEE7" stroke-width="1.2" stroke-miterlimit="10" stroke-linecap="round" stroke-linejoin="round"/>
<path d="M98.0522 89.4216C100.023 91.3952 100.023 94.3557 98.0522 96.3293C96.0817 98.3029 93.1258 98.3029 91.1552 96.3293C89.1846 94.3557 89.1846 91.3952 91.1552 89.4216C92.8795 87.448 96.0817 87.448 98.0522 89.4216Z" fill="white" stroke="#83CEE7" stroke-width="1.2" stroke-miterlimit="10" stroke-linecap="round" stroke-linejoin="round"/>
<path d="M90.6624 88.9282L86.7212 85.2276" stroke="#83CEE7" stroke-width="1.2" stroke-miterlimit="10" stroke-linecap="round" stroke-linejoin="round"/>
<path d="M17.7509 24.7854C15.7803 22.8117 15.7803 19.8513 17.7509 17.8777C19.7215 15.904 22.6774 15.904 24.648 17.8777C26.6185 19.8513 26.6185 22.8117 24.648 24.7854C22.9237 26.759 19.7215 26.759 17.7509 24.7854Z" fill="white" stroke="#83CEE7" stroke-width="1.2" stroke-miterlimit="10" stroke-linecap="round" stroke-linejoin="round"/>
<path d="M25.1401 25.2788L29.0813 28.9793" stroke="#83CEE7" stroke-width="1.2" stroke-miterlimit="10" stroke-linecap="round" stroke-linejoin="round"/>
<path d="M25.1401 97.8095C23.1695 99.7832 20.2137 99.7832 18.2431 97.8095C16.2725 95.8359 16.2725 92.8755 18.2431 90.9019C20.2137 88.9282 23.1695 88.9282 25.1401 90.9019C27.1107 92.6288 27.1107 95.8359 25.1401 97.8095Z" fill="white" stroke="#83CEE7" stroke-width="1.2" stroke-miterlimit="10" stroke-linecap="round" stroke-linejoin="round"/>
<path d="M25.6323 90.4084L29.3272 86.7079" stroke="#83CEE7" stroke-width="1.2" stroke-miterlimit="10" stroke-linecap="round" stroke-linejoin="round"/>
<path d="M89.6772 17.631C91.6478 15.6574 94.6036 15.6574 96.5742 17.631C98.5448 19.6046 98.5448 22.565 96.5742 24.5387C94.6036 26.5123 91.6478 26.5123 89.6772 24.5387C87.7066 22.565 87.7066 19.3579 89.6772 17.631Z" fill="white" stroke="#83CEE7" stroke-width="1.2" stroke-miterlimit="10" stroke-linecap="round" stroke-linejoin="round"/>
<path d="M89.1851 25.032L85.4902 28.7326" stroke="#83CEE7" stroke-width="1.2" stroke-miterlimit="10" stroke-linecap="round" stroke-linejoin="round"/>
<path d="M69.4785 44.7684H66.5227C65.5374 44.7684 64.7984 44.0283 64.7984 43.0415V39.0942H46.5705C45.5852 39.0942 44.8462 39.8343 44.8462 40.8212V73.386C44.8462 74.3728 45.5852 75.1129 46.5705 75.1129H67.7543C68.7396 75.1129 69.4785 74.3728 69.4785 73.386V44.7684V44.7684Z" stroke="#83CEE7" stroke-width="1.2" stroke-miterlimit="10" stroke-linecap="round" stroke-linejoin="round"/>
<path d="M65.0459 39.341L69.4797 44.7684" stroke="#83CEE7" stroke-width="1.2" stroke-miterlimit="10" stroke-linecap="round" stroke-linejoin="round"/>
<path d="M47.3091 48.4689H67.015" stroke="#83CEE7" stroke-width="1.2" stroke-miterlimit="10" stroke-linecap="round" stroke-linejoin="round"/>
<path d="M47.3091 52.9097H67.015" stroke="#83CEE7" stroke-width="1.2" stroke-miterlimit="10" stroke-linecap="round" stroke-linejoin="round"/>
<path d="M47.3091 57.3504H67.015" stroke="#83CEE7" stroke-width="1.2" stroke-miterlimit="10" stroke-linecap="round" stroke-linejoin="round"/>
<path d="M47.3091 61.7909H67.015" stroke="#83CEE7" stroke-width="1.2" stroke-miterlimit="10" stroke-linecap="round" stroke-linejoin="round"/>
<path d="M47.3091 66.2317H67.015" stroke="#83CEE7" stroke-width="1.2" stroke-miterlimit="10" stroke-linecap="round" stroke-linejoin="round"/>
</svg>
