<svg width="173" height="154" viewBox="0 0 173 154" fill="none" xmlns="http://www.w3.org/2000/svg">
<path d="M171.615 17.1071C171.232 8.28656 153.235 1.3835 131.026 1.3835C108.817 1.3835 90.8204 8.28656 90.4375 17.1071V81.5356V81.9191C90.4375 90.7397 108.817 98.0262 131.026 98.0262C153.235 98.0262 171.615 90.7397 171.615 81.9191V81.5356V17.1071Z" fill="white" stroke="#83CEE7" stroke-width="1.2" stroke-miterlimit="10" stroke-linecap="round" stroke-linejoin="round"/>
<path d="M171.999 17.1071C171.999 25.9277 153.62 33.2142 131.411 33.2142C109.202 33.2142 90.8218 25.9277 90.8218 17.1071C90.8218 8.28656 109.202 1 131.411 1C153.62 1 171.999 8.28656 171.999 17.1071Z" stroke="#83CEE7" stroke-width="1.2" stroke-miterlimit="10" stroke-linecap="round" stroke-linejoin="round"/>
<path d="M171.999 40.5009C171.999 49.7049 153.619 56.9915 131.027 56.9915C108.435 56.9915 90.0552 49.7049 90.0552 40.5009" stroke="#83CEE7" stroke-width="1.2" stroke-miterlimit="10" stroke-linecap="round" stroke-linejoin="round"/>
<path d="M171.615 61.5936C171.615 70.7976 153.235 78.0842 131.026 78.0842C108.434 78.0842 90.4375 70.7976 90.4375 61.5936" stroke="#83CEE7" stroke-width="1.2" stroke-miterlimit="10" stroke-linecap="round" stroke-linejoin="round"/>
<path d="M83.1629 17.1071C82.78 8.28656 64.7831 1.3835 42.5742 1.3835C20.3652 1.3835 2.36826 8.28656 1.98535 17.1071V81.5356V81.9191C1.98535 90.7397 20.3652 98.0262 42.5742 98.0262C64.7831 98.0262 83.1629 90.7397 83.1629 81.9191V81.5356V17.1071Z" fill="white" stroke="#83CEE7" stroke-width="1.2" stroke-miterlimit="10" stroke-linecap="round" stroke-linejoin="round"/>
<path d="M83.1629 17.1071C83.1629 25.9277 64.7831 33.2142 42.5742 33.2142C19.9823 33.2142 1.98535 25.9277 1.98535 17.1071C1.98535 8.28656 20.3652 1 42.5742 1C65.166 1 83.1629 8.28656 83.1629 17.1071Z" stroke="#83CEE7" stroke-width="1.2" stroke-miterlimit="10" stroke-linecap="round" stroke-linejoin="round"/>
<path d="M83.1621 40.5009C83.1621 49.7049 64.7823 56.9915 42.1904 56.9915C19.5986 56.9915 1.21875 49.7049 1.21875 40.5009" stroke="#83CEE7" stroke-width="1.2" stroke-miterlimit="10" stroke-linecap="round" stroke-linejoin="round"/>
<path d="M82.7787 61.5936C82.7787 70.7976 64.3988 78.0842 42.1899 78.0842C19.598 78.0842 1.60107 70.7976 1.60107 61.5936" stroke="#83CEE7" stroke-width="1.2" stroke-miterlimit="10" stroke-linecap="round" stroke-linejoin="round"/>
<path d="M129.114 72.3316C128.731 63.511 110.734 56.6079 88.5248 56.6079C66.3159 56.6079 48.3189 63.511 47.936 72.3316V136.76V137.144C47.936 145.964 66.3159 153.251 88.5248 153.251C110.734 153.251 129.114 145.964 129.114 137.144V136.76V72.3316Z" fill="white" stroke="#83CEE7" stroke-width="1.2" stroke-miterlimit="10" stroke-linecap="round" stroke-linejoin="round"/>
<path d="M129.494 72.7151C129.494 81.5356 111.115 88.8222 88.9056 88.8222C66.3138 88.8222 48.3169 81.5356 48.3169 72.7151C48.3169 63.8945 66.6967 56.608 88.9056 56.608C111.115 56.2245 129.494 63.511 129.494 72.7151Z" stroke="#83CEE7" stroke-width="1.2" stroke-miterlimit="10" stroke-linecap="round" stroke-linejoin="round"/>
<path d="M129.113 95.7253C129.113 104.929 110.733 112.216 88.1411 112.216C65.5492 112.216 47.1694 104.929 47.1694 95.7253" stroke="#83CEE7" stroke-width="1.2" stroke-miterlimit="10" stroke-linecap="round" stroke-linejoin="round"/>
<path d="M128.731 117.201C128.731 126.406 110.351 133.692 88.1425 133.692C65.5506 133.692 47.5537 126.406 47.5537 117.201" stroke="#83CEE7" stroke-width="1.2" stroke-miterlimit="10" stroke-linecap="round" stroke-linejoin="round"/>
</svg>