<svg width="67" height="47" viewBox="0 0 67 47" fill="none" xmlns="http://www.w3.org/2000/svg">
<path d="M49.1002 17.7H56.8002C57.9002 17.7 58.7002 18.5999 58.7002 19.5999V30.9999H64.1002C64.8002 30.9999 65.1002 31.5 65.2002 31.8C65.5002 32.5 65.4002 33.3 65.0002 33.7L54.1002 44.5999C53.3002 45.3999 52.1002 45.3999 51.4002 44.5999L40.6002 33.7C40.2002 33.3 40.1002 32.4999 40.3002 31.8999C40.5002 31.3999 41.0002 31.0999 41.6002 31.0999H47.2002V19.7C47.2002 18.6 48.1002 17.7 49.1002 17.7Z" stroke="#E36E2A" stroke-width="2.5"/>
<path d="M37.2 38.9H4.8C3.3 38.9 2 37.7 2 36.1V4.8C2 3.3 3.2 2 4.8 2H50C51.5 2 52.8 3.2 52.8 4.8V11.9" stroke="#E36E2A" stroke-width="2.5" stroke-miterlimit="10" stroke-linecap="round" stroke-linejoin="round"/>
<path d="M15.1001 23.8L3.6001 37.5" stroke="#E36E2A" stroke-width="2.5" stroke-miterlimit="10" stroke-linecap="round" stroke-linejoin="round"/>
<path d="M3 3.0999L27.4 21.8999L51.7 2.8999" stroke="#E36E2A" stroke-width="2.5" stroke-miterlimit="10" stroke-linecap="round" stroke-linejoin="round"/>
</svg>
