<svg width="57" height="63" viewBox="0 0 57 63" fill="none" xmlns="http://www.w3.org/2000/svg">
<path d="M28.8031 15.2C32.4482 15.2 35.4031 12.2451 35.4031 8.6C35.4031 4.95492 32.4482 2 28.8031 2C25.158 2 22.2031 4.95492 22.2031 8.6C22.2031 12.2451 25.158 15.2 28.8031 15.2Z" stroke="#E36E2A" stroke-width="2.5" stroke-miterlimit="10"/>
<path d="M34.1029 62.5001V45.7001C36.9029 45.7001 39.2029 43.4001 39.2029 40.5001V26.3001C39.2029 23.5001 36.9029 21.1001 34.0029 21.1001H23.5029C20.7029 21.1001 18.3029 23.4001 18.4029 26.3001V40.5001C18.4029 43.3001 20.7029 45.7001 23.6029 45.6001V62.3001" stroke="#E36E2A" stroke-width="2.5" stroke-miterlimit="10"/>
<path d="M47.8031 21.9C51.4482 21.9 54.4031 18.945 54.4031 15.2999C54.4031 11.6549 51.4482 8.69995 47.8031 8.69995C44.158 8.69995 41.2031 11.6549 41.2031 15.2999C41.2031 18.945 44.158 21.9 47.8031 21.9Z" stroke="#E36E2A" stroke-width="2.5" stroke-miterlimit="10"/>
<path d="M50.403 62.5V48.9C53.203 48.9 55.603 46.6 55.603 43.7V33.2C55.603 30.4 53.303 28 50.403 28H44.103" stroke="#E36E2A" stroke-width="2.5" stroke-miterlimit="10"/>
<path d="M9.70303 21.9C13.3481 21.9 16.303 18.945 16.303 15.2999C16.303 11.6549 13.3481 8.69995 9.70303 8.69995C6.05795 8.69995 3.10303 11.6549 3.10303 15.2999C3.10303 18.945 6.05795 21.9 9.70303 21.9Z" stroke="#E36E2A" stroke-width="2.5" stroke-miterlimit="10"/>
<path d="M7.10301 62.5V48.9C4.30301 48.9 1.90302 46.6 2.00302 43.7V33.2C2.00302 30.4 4.30301 28 7.20301 28H13.503" stroke="#E36E2A" stroke-width="2.5" stroke-miterlimit="10"/>
</svg>
