<svg width="38" height="50" viewBox="0 0 38 50" fill="none" xmlns="http://www.w3.org/2000/svg">
<path fill-rule="evenodd" clip-rule="evenodd" d="M1.85693 9.87433C1.85693 6.16004 8.99979 2.0429 18.9998 2.1429C28.9998 2.2429 36.1427 6.58004 36.1427 10.2943V39.7058C36.1427 43.42 28.9998 47.8572 18.9998 47.8572C8.99979 47.8572 1.85693 43 1.85693 39.2858V9.87433Z" stroke="#E36E2A" stroke-width="2.5" stroke-linecap="round" stroke-linejoin="round"/>
<path d="M1.85693 25C1.85693 28.9428 7.57122 33.5714 18.9998 33.5714C30.4284 33.5714 36.1427 28.8943 36.1427 24.9486M1.85693 10.7143C1.85693 14.6571 7.57122 19.2857 18.9998 19.2857C30.4284 19.2857 36.1427 14.6086 36.1427 10.6628L1.85693 10.7143Z" stroke="#E36E2A" stroke-width="2.5" stroke-linecap="round" stroke-linejoin="round"/>
</svg>
