<svg width="16" height="16" viewBox="0 0 16 16" fill="none" xmlns="http://www.w3.org/2000/svg">
<path fill-rule="evenodd" clip-rule="evenodd" d="M8 15C9.85652 15 11.637 14.2625 12.9497 12.9497C14.2625 11.637 15 9.85652 15 8C15 6.14348 14.2625 4.36301 12.9497 3.05025C11.637 1.7375 9.85652 1 8 1C6.14348 1 4.36301 1.7375 3.05025 3.05025C1.7375 4.36301 1 6.14348 1 8C1 9.85652 1.7375 11.637 3.05025 12.9497C4.36301 14.2625 6.14348 15 8 15ZM8 16C10.1217 16 12.1566 15.1571 13.6569 13.6569C15.1571 12.1566 16 10.1217 16 8C16 5.87827 15.1571 3.84344 13.6569 2.34315C12.1566 0.842855 10.1217 0 8 0C5.87827 0 3.84344 0.842855 2.34315 2.34315C0.842855 3.84344 0 5.87827 0 8C0 10.1217 0.842855 12.1566 2.34315 13.6569C3.84344 15.1571 5.87827 16 8 16Z" fill="#E36E2A"/>
<path fill-rule="evenodd" clip-rule="evenodd" d="M7.64592 11.354C7.59935 11.3076 7.56241 11.2524 7.5372 11.1917C7.512 11.1309 7.49902 11.0658 7.49902 11C7.49902 10.9343 7.512 10.8691 7.5372 10.8084C7.56241 10.7476 7.59935 10.6925 7.64592 10.646L10.2929 8.00002L7.64592 5.35402C7.59943 5.30753 7.56255 5.25234 7.53739 5.19161C7.51223 5.13087 7.49929 5.06577 7.49929 5.00002C7.49929 4.93428 7.51223 4.86918 7.53739 4.80844C7.56255 4.7477 7.59943 4.69251 7.64592 4.64602C7.6924 4.59953 7.74759 4.56266 7.80833 4.5375C7.86907 4.51234 7.93417 4.49939 7.99992 4.49939C8.06566 4.49939 8.13076 4.51234 8.1915 4.5375C8.25224 4.56266 8.30743 4.59953 8.35392 4.64602L11.3539 7.64602C11.4005 7.69247 11.4374 7.74764 11.4626 7.80839C11.4878 7.86913 11.5008 7.93425 11.5008 8.00002C11.5008 8.06579 11.4878 8.13091 11.4626 8.19165C11.4374 8.2524 11.4005 8.30758 11.3539 8.35402L8.35392 11.354C8.30747 11.4006 8.2523 11.4375 8.19155 11.4627C8.13081 11.4879 8.06568 11.5009 7.99992 11.5009C7.93415 11.5009 7.86903 11.4879 7.80828 11.4627C7.74754 11.4375 7.69236 11.4006 7.64592 11.354Z" fill="#E36E2A"/>
<path fill-rule="evenodd" clip-rule="evenodd" d="M4.5 8C4.5 7.86739 4.55268 7.74021 4.64645 7.64645C4.74021 7.55268 4.86739 7.5 5 7.5H10C10.1326 7.5 10.2598 7.55268 10.3536 7.64645C10.4473 7.74021 10.5 7.86739 10.5 8C10.5 8.13261 10.4473 8.25979 10.3536 8.35355C10.2598 8.44732 10.1326 8.5 10 8.5H5C4.86739 8.5 4.74021 8.44732 4.64645 8.35355C4.55268 8.25979 4.5 8.13261 4.5 8Z" fill="#E36E2A"/>
</svg>
