<svg width="15" height="17" viewBox="0 0 15 17" fill="none" xmlns="http://www.w3.org/2000/svg">
<path d="M15 11.5582V2.65625C15 1.77604 14.2805 1.0625 13.3929 1.0625H1.60714C0.719531 1.0625 0 1.77604 0 2.65625V14.3434C0 15.2236 0.719531 15.9371 1.60714 15.9371H10.5843C11.0105 15.9371 11.4193 15.7692 11.7207 15.4703L14.5293 12.6852C14.8307 12.3863 15 11.9809 15 11.5582ZM10.7143 14.2145V11.6871H13.2629L10.7143 14.2145ZM13.3929 2.65625V10.0934H9.91071C9.46691 10.0934 9.10714 10.4501 9.10714 10.8902V14.3434H1.60714V2.65625H13.3929Z" fill="white"/>
</svg>
