<svg width="61" height="66" viewBox="0 0 61 66" fill="none" xmlns="http://www.w3.org/2000/svg">
<g clip-path="url(#clip0)">
<path d="M60.8741 29.2172C60.7481 28.0887 60.5802 26.8347 60.2443 25.4136C59.9085 23.9924 59.3207 22.4877 58.5231 20.8575C57.6834 19.2692 56.7178 17.5972 55.3324 16.0089C54.7866 15.3819 54.1989 14.7967 53.6111 14.1279C54.5348 10.4497 52.4776 7.23116 52.4776 7.23116C48.9092 6.98037 46.6421 8.35972 45.8445 8.9449C45.7185 8.9031 45.5506 8.81951 45.4246 8.77771C44.8369 8.52692 44.2072 8.31792 43.5354 8.06713C42.9057 7.89994 42.234 7.64915 41.6043 7.52375C40.9745 7.35656 40.2608 7.23116 39.5471 7.10576C39.4212 7.10576 39.2952 7.06396 39.2113 7.06396C37.6999 2.08993 33.2498 0 33.2498 0C28.128 3.26029 27.1204 7.69094 27.1204 7.69094C27.1204 7.69094 27.1204 7.81634 27.0785 7.94174C26.7846 7.98353 26.5327 8.10893 26.2388 8.19253C25.903 8.31792 25.4831 8.44332 25.1053 8.61051C24.7694 8.77771 24.3496 8.9031 23.9718 9.0703C23.2161 9.40469 22.5024 9.78087 21.7467 10.1989C21.033 10.6168 20.3193 11.0348 19.6896 11.4946C19.5637 11.4528 19.5217 11.3692 19.5217 11.3692C12.6366 8.73591 6.50723 11.9126 6.50723 11.9126C5.96146 19.2274 9.27805 23.7834 9.90778 24.6194C9.73985 25.0792 9.6139 25.4972 9.44597 25.9569C8.90021 27.5871 8.56435 29.3008 8.31246 31.0564C8.27047 31.3072 8.27047 31.5997 8.18651 31.8087C1.88919 34.86 0 41.297 0 41.297C5.28975 47.3996 11.5451 47.734 11.5451 47.734C12.3008 49.1552 13.2663 50.4927 14.2319 51.7049C14.6518 52.2483 15.1136 52.708 15.5754 53.2096C13.6442 58.727 15.8692 63.3249 15.8692 63.3249C21.8307 63.5757 25.693 60.7334 26.5327 60.1064C27.1204 60.2736 27.7082 60.4408 28.2959 60.6498C30.1012 61.1096 31.9904 61.4022 33.8376 61.4858C34.2994 61.4858 34.7612 61.4858 35.265 61.4858H35.5169H35.6848H35.9787H36.2725C39.0434 65.4566 43.9972 66 43.9972 66C47.4818 62.3217 47.6917 58.7271 47.6917 57.9329C47.6917 57.9329 47.6917 57.9329 47.6917 57.8911C47.6917 57.8493 47.6917 57.7657 47.6917 57.7657C47.6917 57.7239 47.6917 57.6403 47.6917 57.5985C48.4054 57.0551 49.1191 56.5535 49.7908 55.9683C51.2182 54.7562 52.3937 53.2932 53.4432 51.7467C53.5692 51.6213 53.6111 51.4541 53.7371 51.3287C57.6834 51.5795 60.4542 48.8626 60.4542 48.8626C59.8245 44.7663 57.4735 42.76 56.9697 42.4256C56.9697 42.4256 56.9697 42.4256 56.9277 42.3838L56.8858 42.342L56.8438 42.3002C56.8438 42.0494 56.8858 41.8404 56.8858 41.5478C56.9277 41.088 56.9277 40.67 56.9277 40.2103V39.8759V39.7087V39.6669C56.9277 39.5415 56.9277 39.6251 56.9277 39.5415V39.2489V38.9145C56.9277 38.7891 56.9277 38.6637 56.9277 38.5801C56.9277 38.4547 56.9277 38.3293 56.8858 38.2457L56.8438 37.9113L56.8018 37.577C56.7598 37.1172 56.6339 36.6992 56.5499 36.2394C56.1301 34.4839 55.4164 32.7701 54.5348 31.3072C53.6111 29.8024 52.4776 28.5067 51.1762 27.3363C49.8747 26.2077 48.4893 25.2882 46.936 24.6612C45.4246 23.9506 43.8713 23.5326 42.276 23.3654C41.5203 23.24 40.6807 23.24 39.925 23.24H39.6311H39.5891H39.4632H39.3372H39.0434C38.9174 23.24 38.7915 23.24 38.7495 23.24C38.3297 23.2818 37.9098 23.3654 37.574 23.4072C35.9787 23.6998 34.5093 24.285 33.2078 25.0374C31.9064 25.7897 30.8149 26.7929 29.8493 27.9215C28.9257 29.05 28.212 30.2204 27.7502 31.4744C27.2884 32.6865 26.9945 34.0659 26.9105 35.278C26.9105 35.5706 26.9105 35.905 26.9105 36.1976C26.9105 36.2394 26.9105 36.3648 26.9105 36.4484V36.6992C26.9105 36.8664 26.9105 36.9918 26.9525 37.159C26.9945 37.7859 27.1204 38.3711 27.2884 38.9563C27.6242 40.1267 28.17 41.1716 28.8837 42.133C29.5974 43.0526 30.3531 43.7631 31.2347 44.3483C32.1163 44.9335 32.9979 45.3515 33.9215 45.6441C34.8451 45.9367 35.7268 46.0621 36.5664 45.9785C36.6924 45.9785 36.8183 45.9785 36.8603 45.9785C36.9023 45.9785 36.9862 45.9785 37.0282 45.9785C37.0702 45.9785 37.1542 45.9785 37.1961 45.9785C37.3221 45.9785 37.3641 45.9785 37.49 45.9785H37.532H37.574C37.616 45.9785 37.6999 45.9785 37.7419 45.9785C37.8679 45.9785 37.9938 45.9367 38.0358 45.9367C38.1617 45.9367 38.2037 45.8949 38.3297 45.8949C38.4976 45.8531 38.7495 45.7695 38.9174 45.7277C39.2533 45.6023 39.6311 45.4351 39.967 45.3097C40.3028 45.1425 40.5967 44.9753 40.8486 44.7663C40.8906 44.7245 41.0165 44.6409 41.1005 44.5991C41.3944 44.3483 41.4363 43.9721 41.2264 43.6795C40.9745 43.4288 40.6387 43.387 40.3448 43.5124C40.3028 43.5541 40.2189 43.5542 40.0929 43.6377C39.841 43.7631 39.5471 43.8885 39.3372 43.9303C39.0434 43.9721 38.7495 44.0975 38.4556 44.1811C38.2877 44.1811 38.1617 44.2229 37.9938 44.2229C37.9518 44.2229 37.8259 44.2229 37.7419 44.2229C37.6579 44.2229 37.574 44.2229 37.49 44.2229C37.448 44.2229 37.3221 44.2229 37.2381 44.2229C37.1122 44.2229 37.0702 44.2229 36.9443 44.2229C36.9443 44.2229 36.9023 44.2229 36.9443 44.2229H36.9023H36.9443C36.9023 44.2229 36.9023 44.2229 36.8183 44.2229C36.7343 44.2229 36.6504 44.2229 36.5664 44.1811C35.9367 44.0557 35.223 43.8885 34.5513 43.596C33.9215 43.3034 33.2498 42.8854 32.746 42.3838C32.1583 41.8404 31.6965 41.2552 31.2767 40.5864C30.8568 39.8759 30.6469 39.1235 30.521 38.3711C30.479 37.9531 30.395 37.5352 30.479 37.159C30.479 37.0336 30.479 36.9082 30.479 36.8246C30.479 36.8664 30.479 36.8246 30.479 36.8246V36.7828V36.3648C30.479 36.323 30.479 36.2394 30.479 36.1976C30.479 35.9468 30.521 35.7796 30.605 35.5706C30.8988 33.8151 31.7805 32.1013 33.1239 30.8474C33.4597 30.513 33.8376 30.2204 34.2574 29.9696C34.6772 29.677 35.097 29.4262 35.4749 29.259C35.8947 29.0918 36.3565 28.9246 36.8183 28.7992C37.2801 28.6738 37.7419 28.5485 38.2457 28.5485C38.4976 28.5485 38.7075 28.5067 38.9594 28.5067C39.0014 28.5067 39.0853 28.5067 39.1273 28.5067H39.2952H39.4212C39.4632 28.5067 39.4212 28.5067 39.4212 28.5067H39.4632H39.6311C40.1769 28.5484 40.6807 28.632 41.1425 28.7574C42.15 29.0082 43.1576 29.3426 44.0812 29.886C45.9704 30.931 47.5657 32.5193 48.4893 34.4421C48.9511 35.3616 49.329 36.4484 49.4969 37.5352C49.5389 37.8277 49.5389 38.0785 49.6228 38.3711V38.5383V38.7055C49.6228 38.7473 49.6228 38.8309 49.6228 38.8727C49.6228 38.9145 49.6228 38.9981 49.6228 39.0399V39.2071V39.3743C49.6228 39.4997 49.6228 39.7087 49.6228 39.8341C49.6228 40.1267 49.5809 40.4193 49.5809 40.7118C49.5389 41.0044 49.5389 41.297 49.4549 41.5896C49.4129 41.8822 49.329 42.1748 49.287 42.4674C49.161 43.0526 48.9511 43.5959 48.7412 44.1811C48.3214 45.3097 47.7337 46.3547 47.02 47.2742C45.5926 49.197 43.6614 50.7853 41.4783 51.7885C40.3448 52.2483 39.2533 52.6662 38.0778 52.8334C37.49 52.9588 36.9023 53.0006 36.3145 53.0006H36.1886H36.1046H35.9367H35.6428H35.4749C35.5169 53.0006 35.4749 53.0006 35.4749 53.0006H35.4329C35.139 53.0006 34.8032 53.0006 34.5093 52.9588C33.2078 52.8334 31.9904 52.6245 30.7309 52.2483C29.5134 51.9139 28.3379 51.4123 27.2044 50.8271C24.9794 49.6567 22.9642 47.943 21.3689 46.0203C20.6132 45.0171 19.8995 43.9721 19.3118 42.8436C18.724 41.715 18.3042 40.5447 17.9683 39.3743C17.6325 38.2039 17.4226 36.9918 17.3806 35.7378V35.5288V35.487V35.4452V35.3198V35.1526V35.1108V35.069V34.9436V34.651V34.6092V34.4839C17.3806 34.3167 17.3806 34.1913 17.3806 34.0241C17.3806 33.4389 17.4226 32.8119 17.5485 32.1431C17.5905 31.5162 17.7164 30.931 17.8424 30.2622C17.9683 29.6352 18.1363 29.05 18.3042 28.3813C18.6401 27.1691 19.0599 25.9987 19.6056 24.8702C20.6552 22.6548 21.9986 20.6485 23.5939 19.0602C24.0138 18.6422 24.4336 18.3078 24.8954 17.9316C25.0633 17.7644 25.4831 17.3882 25.9449 17.0956C26.4067 16.803 26.8685 16.5105 27.4143 16.2597C27.6662 16.1343 27.8761 16.0089 28.17 15.9253C28.2959 15.8835 28.4219 15.7999 28.5898 15.7581C28.7158 15.7163 28.8417 15.6327 29.0096 15.5909C29.5554 15.3401 30.0592 15.1729 30.605 15.0057C30.7309 14.9639 30.8988 14.9639 31.0248 14.8803C31.1507 14.8385 31.3187 14.8385 31.4446 14.7549C31.7385 14.7131 31.9904 14.6295 32.2842 14.5041C32.4102 14.4623 32.5781 14.4623 32.7041 14.3787C32.83 14.3787 32.9979 14.3369 33.1239 14.3369C33.2498 14.3369 33.4178 14.2951 33.5437 14.2951L33.7956 14.2533L34.0475 14.2115C34.1734 14.2115 34.3414 14.1697 34.4673 14.1697C34.6352 14.1697 34.7612 14.1279 34.9291 14.1279C35.0551 14.1279 35.265 14.0861 35.3909 14.0861C35.5169 14.0861 35.5588 14.0861 35.6848 14.0443H35.8527H35.9787H36.1046C36.2725 14.0443 36.3985 14.0443 36.5664 14.0025H36.8183C36.8183 14.0025 36.8603 14.0025 36.8183 14.0025H36.8603H36.9862C37.1122 14.0025 37.2801 14.0025 37.4061 14.0025C37.9518 14.0025 38.4556 14.0025 39.0014 14.0025C40.0509 14.0443 41.1005 14.1697 42.1081 14.3369C44.1232 14.6713 46.0544 15.3401 47.7756 16.2179C49.4969 17.0538 51.0502 18.0988 52.3517 19.1856C52.3937 19.2274 52.5196 19.311 52.6036 19.4364C52.6456 19.4782 52.7715 19.5617 52.8555 19.6871C53.0234 19.8125 53.1493 19.9797 53.3173 20.1051C53.4852 20.2305 53.6112 20.3977 53.7791 20.5231C53.905 20.6903 54.073 20.8157 54.1989 20.9829C54.7867 21.5681 55.3324 22.1951 55.7942 22.7802C56.7178 23.9924 57.5155 25.2464 58.1032 26.4167C58.1452 26.4585 58.1452 26.5421 58.2292 26.6675C58.2712 26.7093 58.2712 26.7929 58.3551 26.9183C58.3971 27.0437 58.4811 27.2109 58.607 27.3363C58.649 27.4617 58.733 27.6289 58.7749 27.7543C58.8169 27.8797 58.9009 28.0469 58.9429 28.1723C59.1948 28.7156 59.3627 29.2172 59.5306 29.7606C59.8245 30.5966 59.9924 31.2654 60.1604 31.8505C60.2023 32.1013 60.4542 32.2685 60.7061 32.2685C61 32.2685 61.1679 32.0177 61.1679 31.7251C60.958 30.8474 60.958 30.095 60.8741 29.2172Z" fill="url(#paint0_linear)"/>
</g>
<defs>
<linearGradient id="paint0_linear" x1="30.4987" y1="80.8835" x2="30.4987" y2="20.6491" gradientUnits="userSpaceOnUse">
<stop stop-color="#FCEE1F"/>
<stop offset="1" stop-color="#F15B2A"/>
</linearGradient>
<clipPath id="clip0">
<rect width="61" height="66" fill="white"/>
</clipPath>
</defs>
</svg>
