<svg width="40" height="48" viewBox="0 0 40 48" xmlns="http://www.w3.org/2000/svg"><title>Logo/Light</title><g id="Logo/Light" fill="none" fill-rule="evenodd"><g id="Logo/Dark" transform="translate(0 5)"><g id="Logo/Dark-Copy"><path d="M31.542 7.053c-.772-.9-.795-1.94 0-2.772.771-.786 1.77-.808 2.726 0l-2.726 2.772zM18.98 19.835c-.773-.901-.796-1.963 0-2.774.772-.785 1.772-.808 2.748 0l-2.748 2.774zm10.04-.23l2.817-2.866-3.042-3.098c-2.476-2.52-1.75-3.859-1.18-4.437.362-.37.726-.647.977-.786a7.14 7.14 0 0 0 1.362 1.872c2.95 3.028 6.178 2.61 8.654.071 1.477-1.504 2.182-2.89 2.362-3.584l-2.43-1.363c-.294.646-.977 1.757-1.747 2.542-1.341 1.386-2.615 1.386-3.476.67l5.068-5.131-.636-.647c-2.98-3.05-5.746-3.213-8.247-.67-1.657 1.686-1.885 3.767-1.159 5.662L26.48 5.599c-.181.07-.522.346-.863.693-.977 1.017-1.204 2.588-.953 3.628l-1.252-1.085-2.474 2.519 3.405 3.467c-2.702-2.265-5.133-2.15-7.38.138-2.272 2.31-2.136 5.132-.25 7.487l-.319-.322c-2.021-2.058-3.974-2.499-5.906-.51-1.136 1.133-1.317 2.242-1.204 3.237l-4.77-4.832-2.774 2.82 9.221 9.408h5.635l-3.884-3.953c-1.363-1.364-1.772-2.311-.932-3.166.613-.647 1.318-.625 2.18.253l4.68 4.785 2.817-2.865-3.498-3.559c2.77 2.335 5.792 1.758 8.087-.6 1.205-1.201 1.862-2.312 2.182-3.074L25.75 18.66c-.363.646-.908 1.455-1.498 2.08-1.364 1.385-2.635 1.385-3.497.668l5.02-5.107 3.246 3.304z" id="Fill-5" fill="#3f454d"/><path id="Fill-7" fill="#00AFAA" d="M0 32.194l5.654 5.754 5.655-5.754z"/></g></g></g></svg>
