<svg width="71" height="71" viewBox="0 0 71 71" fill="none" xmlns="http://www.w3.org/2000/svg">
<g clip-path="url(#clip0)">
<path d="M35.5313 0C15.917 0 0 15.917 0 35.5313C0 55.1456 15.917 71.0627 35.5313 71.0627C55.1456 71.0627 71.0627 55.1456 71.0627 35.5313C71 15.917 55.1456 0 35.5313 0ZM35.5313 66.4881C29.9541 66.4881 25.4422 62.7908 25.4422 58.1536H45.6205C45.6205 62.7282 41.1086 66.4881 35.5313 66.4881ZM52.2004 55.3963H18.7996V49.3177H52.2004V55.3963ZM52.075 46.1845H18.925C18.7996 46.0591 18.6743 45.9338 18.6117 45.8085C15.165 41.6726 14.4131 39.4793 13.5984 37.286C13.5984 37.2233 17.7343 38.1633 20.6796 38.7899C20.6796 38.7899 22.1836 39.1659 24.4395 39.5419C22.3089 37.0353 21.0556 33.902 21.0556 30.6434C21.0556 23.4996 26.5075 17.2957 24.5649 12.2824C26.5075 12.4078 28.5128 16.3557 28.7008 22.4342C30.7688 19.6143 31.5834 14.4757 31.5834 11.3425C31.5834 8.08385 33.714 4.26125 35.9073 4.13592C33.9647 7.2692 36.4086 10.0265 38.5393 16.7317C39.3539 19.2383 39.2286 23.4996 39.8553 26.1942C40.0432 20.6169 41.0459 12.4078 44.5552 9.58782C42.9885 13.1598 44.8058 17.609 45.9965 19.7396C48.0018 23.1862 49.1924 25.8182 49.1924 30.7061C49.1924 34.0274 47.9391 37.1606 45.9338 39.5419C48.2524 39.1033 49.8817 38.7273 49.8817 38.7273L57.5269 37.2233C57.4643 37.286 56.3363 41.8605 52.075 46.1845Z" fill="#E6522C"/>
</g>
<defs>
<clipPath id="clip0">
<rect width="71" height="71" fill="white"/>
</clipPath>
</defs>
</svg>
