<svg height="40" viewBox="0 0 117 40" width="117" xmlns="http://www.w3.org/2000/svg" xmlns:xlink="http://www.w3.org/1999/xlink"><mask id="a" fill="#fff"><path d="m0 39.1741071h116.870487v-38.73759562h-116.870487z" fill="#fff" fill-rule="evenodd"/></mask><g fill="none" fill-rule="evenodd"><path d="m8.84069519 27.8882334 10.94857221 2.3330357v-20.47873083l-10.94857221 2.32495213zm14.20830481 6.5918208-16.83360963-4.5504145v-19.9116391l16.81045993-4.5168367z" fill="#00a86b"/><path d="m16.1446861.6215625-16.14474867 5.85683992v27.02391578l16.14474867 5.85684v-32.01954723zm-13.26792514 31.2932717v-23.84832591l10.04448124-3.09910714v30.04654015z" fill="#00a86b"/><path d="m16.1449364 10.5151387 1.5929518-.3370217v-3.25580354l-1.5929518.42718431z" fill="#038754"/><path d="m16.1449364 32.6134391 1.5929518.4302934v-3.2595345l-1.5929518-.3395089z" fill="#038754"/><g fill="#000" transform="translate(0 .185051)"><path d="m39.903507 18.0693367c-3.1433583-.4533003-3.7521337-1.1845503-3.7521337-2.6458067 0-1.3860172 1.0648877-2.368479 3.1183315-2.368479 2.0515669 0 3.1364759.7897003 3.4812193 2.625287l2.9650427-.8015147c-.6394331-2.8733896-2.8874598-4.3439732-6.446262-4.3439732-3.7777861 0-6.3129946 2.2173789-6.3129946 5.1660077 0 3.3764349 2.0534438 4.6865912 6.3887005 5.2661192 2.9412674.4787947 3.7784118 1.1086895 3.7784118 2.7720345 0 1.6627232-1.4202674 2.7720344-3.4230321 2.7720344-3.0676524 0-3.8034385-1.5122449-4.0311818-3.3260682h-.0100107l-3.1245883.8444196c.5230588 2.9523597 2.6428236 5.0012277 7.1657808 5.0012277 4.0061551 0 6.6683743-2.4443399 6.6683743-5.5689413 0-3.6033961-2.2061069-4.8128189-6.4656577-5.392347"/><path d="m50.6810214 20.8158769c.3040749-2.0414062 1.5460267-3.2757015 3.3973797-3.2757015 1.9020321 0 3.0676524 1.007956 3.2196898 3.2757015zm3.3973797-5.4930803c-3.7777861 0-6.5926685 2.7210459-6.5926685 6.8032366v.2020886c0 4.1574299 2.8148824 6.7025032 6.7190535 6.7025032 3.3980053 0 5.6547914-1.5122449 6.0852513-4.2836575h-2.9656684c-.2289947 1.284662-1.1925241 2.015912-3.043877 2.015912-2.2818129 0-3.5494171-1.4115115-3.6507754-3.9055963h9.711v-.8823502c0-4.7120854-2.9669198-6.6521364-6.2623155-6.6521364z"/><path d="m68.5061904 26.6872672c-2.2567861 0-3.6770535-1.5122449-3.6770535-4.3843909v-.2020887c0-2.7210459 1.4959733-4.3340242 3.6007219-4.3340242 1.6223583 0 2.7886043.73125 3.042 2.4947066h2.9669198c-.354754-3.6282685-3.1189572-4.9384247-6.0602246-4.9384247-3.7014545 0-6.6927754 2.6458067-6.6927754 6.8287308v.2008451c0 4.2084183 2.8899626 6.6782525 6.6927754 6.6782525 3.6013476 0 5.9081872-2.1421396 6.1365562-5.1660076h-2.8148824c-.1770642 1.8648118-1.5716791 2.8224011-3.1940374 2.8224011"/><path d="m79.368608 24.8224554v-6.9294643h2.9162407v-2.2932398h-2.9162407v-4.2357781l-3.0676524.8294962v12.9063138c0 2.4947066 1.3689626 3.9055963 4.0061551 3.9055963.937877 0 1.5973315-.1511002 2.0784706-.3276946v-2.4188456c-.4304599.1765944-.8871979.2518335-1.4959733.2518335-.9629037 0-1.521-.5291613-1.521-1.6882174"/><path d="m84.7186364 28.7786671h3.068278v-13.1786671h-3.068278z" mask="url(#a)"/><path d="m100.084678 22.2771955c0 2.6961734-1.3695882 4.3843909-3.651401 4.3843909-2.332492 0-3.6764278-1.6882175-3.6764278-4.3843909v-.2014669c0-2.7210459 1.394615-4.3588966 3.6764278-4.3588966s3.651401 1.6627232 3.651401 4.3837691zm-3.651401-6.9543368c-3.9047968 0-6.8204118 2.721046-6.8204118 6.8032366v.2020887c0 4.0063297 2.8905883 6.7025032 6.7947594 6.7025032 3.9047964 0 6.8204114-2.671301 6.8204114-6.7783642v-.2014668c0-4.031824-2.915615-6.7279975-6.794759-6.7279975z" mask="url(#a)"/><path d="m112.332263 15.3227966c-2.18108 0-3.651401 1.0831951-4.285203 2.3684789v-2.0911511h-3.067653v13.1786671h3.067653v-7.7614478c0-2.0911511 1.393989-3.1494738 3.118331-3.1494738 1.825701 0 2.636567.9066008 2.636567 2.8976403v8.0132813h3.068278v-8.2906091c0-3.6282685-1.876379-5.1653858-4.537973-5.1653858" mask="url(#a)"/><path d="m84.7186364 13.7923948h3.068278v-3.0493623h-3.068278z" mask="url(#a)"/></g></g></svg>